<?xml version="1.0" encoding="iso-8859-1"?>
<!-- Uploaded to: SVG Repo, www.svgrepo.com, Generator: SVG Repo Mixer Tools -->
<!DOCTYPE svg PUBLIC "-//W3C//DTD SVG 1.1//EN" "http://www.w3.org/Graphics/SVG/1.1/DTD/svg11.dtd">
<svg fill="#000000" version="1.1" id="Capa_1" xmlns="http://www.w3.org/2000/svg" xmlns:xlink="http://www.w3.org/1999/xlink" 
	 width="800px" height="800px" viewBox="0 0 377.871 377.871"
	 xml:space="preserve">
<g>
	<g>
		<path d="M255.911,106.002c-16.815-14.187-37.155-22.489-58.976-24.143V8c0-4.418-3.582-8-8-8s-8,3.582-8,8v73.841
			c-2.619,0.2-5.226,0.496-7.803,0.89c-0.001,0-0.002,0-0.003,0c-21.749,3.321-41.554,13.298-57.274,28.85l-0.001,0.001h-0.001
			c0,0.001,0,0.001,0,0.001v0.001c-15.648,15.48-25.82,35.088-29.417,56.701c0,0.002-0.001,0.003-0.001,0.003
			c-0.942,5.663-1.42,11.439-1.42,17.168c0,1.579,0.04,3.311,0.119,5.144c0.785,18.328,5.639,43.295,13.314,68.5
			c0.001,0.004,0.003,0.006,0.004,0.01c0.613,2.015,1.245,4.035,1.896,6.058c0.001,0.007,0.002,0.013,0.004,0.017
			c6.04,18.758,13.404,36.766,21.295,52.078c11.256,21.846,23.349,38.062,35.943,48.203c0.001,0,0.002,0,0.003,0.002
			c10.228,8.23,20.772,12.404,31.341,12.404c8.082,0,16.218-2.473,24.18-7.35c13.687-8.385,26.88-23.857,39.215-45.996
			c0.002-0.002,0.005-0.004,0.007-0.008c9.062-16.264,17.511-35.99,24.435-57.051c0.001-0.002,0.001-0.004,0.002-0.006
			c1.962-5.965,3.796-12.021,5.452-17.996c4.811-17.355,8.163-34.07,9.697-48.339c0.618-5.757,0.934-11.028,0.934-15.67
			C292.855,154.772,279.39,125.813,255.911,106.002z M238.637,112.918l-15.354,15.354l-14.216-14.217l-14.212-14.213l1.958-1.959
			C211.942,99.216,226.205,104.355,238.637,112.918z M209.067,273.027l-14.212-14.213l28.428-28.43l14.214,14.213l14.217,14.215
			l-28.431,28.432L209.067,273.027z M158.011,165.112l14.216,14.215l-28.43,28.433l-14.216-14.218l-14.212-14.213l28.428-28.43
			L158.011,165.112z M143.796,230.385l14.214,14.213l14.216,14.215l-28.43,28.432l-28.428-28.43L143.796,230.385z M211.969,219.071
			l-28.428,28.43l-14.214-14.213l-14.216-14.215l28.43-28.433l14.216,14.217L211.969,219.071z M211.969,139.584l-28.428,28.43
			l-14.214-14.213l-14.216-14.215l28.43-28.432l14.216,14.217L211.969,139.584z M118.271,204.857l14.212,14.214l-22.421,22.422
			c-4.73-17.769-7.813-34.662-8.746-48.11l2.739-2.74L118.271,204.857z M267.36,243.166l-4.333,4.334l-14.214-14.213l-14.216-14.215
			l28.43-28.432l12.543,12.543C274.044,215.191,271.232,228.889,267.36,243.166z M251.713,179.328l-28.431,28.432l-14.216-14.218
			l-14.212-14.213l28.428-28.43l1.73,1.73L251.713,179.328z M128.611,294.686l3.871,3.873l-1.458,1.457
			C130.21,298.266,129.407,296.49,128.611,294.686z M155.111,298.559l28.43-28.432l14.216,14.217l14.212,14.213l-28.428,28.43
			l-14.214-14.213L155.111,298.559z M276.47,177.199c0.142,1.517,0.245,3.037,0.309,4.566l-2.438-2.438L276.47,177.199z
			 M272.696,158.697c-0.563,0.335-1.097,0.745-1.582,1.229l-8.087,8.088l-14.214-14.213l-14.216-14.215l16.397-16.4
			C261.052,133.203,268.447,145.391,272.696,158.697z M171.622,99.236l0.605,0.605l-28.43,28.431l-5.228-5.229l-5.49-5.49
			C144.259,108.318,157.396,102.066,171.622,99.236z M121.7,128.8l5.495,5.495l5.288,5.289l-28.428,28.43l-1.08-1.08
			C105.991,152.817,112.379,139.818,121.7,128.8z M138.599,315.07l5.198-5.199l14.214,14.215l14.216,14.215l-9.922,9.922
			C154.291,340.291,146.225,329.02,138.599,315.07z M175.117,358.039l8.425-8.426l11.48,11.482c-2.059,0.514-4.09,0.771-6.086,0.771
			C184.458,361.869,179.832,360.584,175.117,358.039z M209.849,353.295l-14.993-14.994l28.428-28.43l6.834,6.832l5.238,5.238
			C227.059,335.867,218.373,346.535,209.849,353.295z M243.336,307.297l-5.029-5.029l-3.709-3.709l22.047-22.047
			C252.544,287.482,248.056,297.869,243.336,307.297z"/>
	</g>
</g>
</svg>