<?xml version="1.0" encoding="iso-8859-1"?>
<!-- Uploaded to: SVG Repo, www.svgrepo.com, Generator: SVG Repo Mixer Tools -->
<!DOCTYPE svg PUBLIC "-//W3C//DTD SVG 1.1//EN" "http://www.w3.org/Graphics/SVG/1.1/DTD/svg11.dtd">
<svg fill="#000000" version="1.1" id="Capa_1" xmlns="http://www.w3.org/2000/svg" xmlns:xlink="http://www.w3.org/1999/xlink" 
	 width="800px" height="800px" viewBox="0 0 45.912 45.912"
	 xml:space="preserve">
<g>
	<g>
		<path d="M19.527,11.219c-0.164,0.096-4.007,2.4-2.92,7.914c0.096,0.485,0.521,0.82,0.997,0.82c0.065,0,0.132-0.005,0.199-0.019
			c0.552-0.108,0.909-0.644,0.801-1.195c-0.796-4.034,1.819-5.683,1.951-5.762c0.481-0.285,0.645-0.904,0.363-1.388
			C20.636,11.101,20.012,10.937,19.527,11.219z"/>
		<circle cx="18.368" cy="22.306" r="1.134"/>
		<path d="M30.832,9.001c-0.831-0.845-1.774-1.529-2.799-2.059l0.015-1.801h12.317c1.405,0,2.544-1.166,2.544-2.571
			c0-1.405-1.139-2.57-2.544-2.57H5.547C4.142,0,3.003,1.166,3.003,2.57c0,1.406,1.139,2.571,2.544,2.571h12.469L18.002,6.9
			c-3.57,1.811-6.042,5.502-6.077,9.759c-0.022,2.771,1.004,7.633,2.439,11.565c2.224,6.096,5.061,9.196,8.431,9.225
			c3.399,0,6.272-3.062,8.585-9.105c1.497-3.906,2.598-8.749,2.619-11.513C34.024,13.885,32.899,11.102,30.832,9.001z
			 M22.838,34.366c-0.006,0-0.011,0-0.018,0c-4.41,0-7.877-13.297-7.842-17.707c0.035-4.387,3.603-7.91,7.98-7.91
			c0.023,0,0.046,0,0.068,0c4.413,0,7.958,3.629,7.921,8.039C30.913,21.192,27.241,34.366,22.838,34.366z"/>
		<path d="M23.876,39.944c-0.257-0.205-0.564-0.345-0.92-0.345l0,0l0,0c-0.355,0-0.671,0.141-0.928,0.345
			c-0.352,0.278-0.568,0.731-0.568,1.218v3.184c0,0.487,0.216,0.94,0.568,1.221c0.257,0.203,0.573,0.346,0.928,0.346l0,0l0,0
			c0.355,0,0.663-0.143,0.92-0.346c0.352-0.28,0.561-0.732,0.561-1.221v-3.184C24.437,40.676,24.228,40.225,23.876,39.944z"/>
		<path d="M9.928,18.942c0-0.844-0.683-1.534-1.526-1.534H5.218c-0.844,0-1.528,0.69-1.528,1.534c0,0.843,0.684,1.533,1.528,1.533
			h3.184C9.246,20.475,9.928,19.786,9.928,18.942z"/>
		<path d="M10.954,32.189l-2.252,2.252c-0.595,0.598-0.595,1.563,0,2.158c0.299,0.299,0.689,0.448,1.081,0.448
			c0.389,0,0.781-0.149,1.079-0.448l2.252-2.252c0.596-0.597,0.596-1.562,0-2.158C12.516,31.594,11.55,31.594,10.954,32.189z"/>
		<path d="M40.694,17.409h-3.184c-0.844,0-1.527,0.69-1.527,1.534c0,0.843,0.684,1.533,1.527,1.533h3.184
			c0.844,0,1.527-0.69,1.527-1.533C42.222,18.099,41.538,17.409,40.694,17.409z"/>
		<path d="M34.958,32.189c-0.598-0.596-1.562-0.596-2.159,0c-0.596,0.597-0.596,1.562,0,2.16l2.253,2.252
			c0.297,0.297,0.688,0.447,1.078,0.447c0.391,0,0.781-0.15,1.08-0.447c0.596-0.597,0.596-1.562,0-2.158L34.958,32.189z"/>
	</g>
</g>
</svg>