<?xml version="1.0" encoding="iso-8859-1"?>
<!-- Uploaded to: SVG Repo, www.svgrepo.com, Generator: SVG Repo Mixer Tools -->
<!DOCTYPE svg PUBLIC "-//W3C//DTD SVG 1.1//EN" "http://www.w3.org/Graphics/SVG/1.1/DTD/svg11.dtd">
<svg fill="#000000" version="1.1" id="Capa_1" xmlns="http://www.w3.org/2000/svg" xmlns:xlink="http://www.w3.org/1999/xlink" 
	 width="800px" height="800px" viewBox="0 0 434.299 434.299"
	 xml:space="preserve">
<g>
	<g id="Layer_2_12_">
		<g>
			<path d="M163.338,184.885l-8.676-2.908l-3.783-8.307c-0.313-0.688-0.988-1.141-1.742-1.169c-0.781-0.064-1.465,0.37-1.828,1.032
				l-3.498,6.337l-7.221-0.345c-0.805-0.025-1.545,0.404-1.895,1.123c-0.35,0.72-0.236,1.578,0.287,2.184l5.564,6.433l-1.52,8.464
				c-0.123,0.693,0.125,1.401,0.658,1.863c0.531,0.461,1.266,0.607,1.936,0.391l7.857-2.582l6.672,4.746
				c0.346,0.246,0.752,0.37,1.16,0.37c0.367,0,0.736-0.102,1.061-0.305c0.686-0.429,1.045-1.229,0.912-2.026l-1.223-7.288
				l5.865-4.534c0.584-0.451,0.871-1.188,0.748-1.915C164.553,185.721,164.037,185.12,163.338,184.885z"/>
			<path d="M297.705,179.526l-7.223,0.345l-3.496-6.337c-0.365-0.662-1.055-1.098-1.828-1.032c-0.756,0.028-1.43,0.481-1.744,1.169
				l-3.781,8.307l-8.678,2.908c-0.699,0.234-1.213,0.836-1.336,1.563c-0.123,0.727,0.166,1.464,0.75,1.915l5.865,4.534l-1.223,7.288
				c-0.135,0.798,0.225,1.598,0.91,2.026c0.326,0.203,0.691,0.305,1.062,0.305c0.406,0,0.812-0.124,1.158-0.37l6.672-4.746
				l7.859,2.582c0.668,0.217,1.404,0.07,1.936-0.391c0.531-0.462,0.781-1.17,0.656-1.863l-1.52-8.464l5.564-6.433
				c0.523-0.605,0.635-1.464,0.285-2.184C299.248,179.93,298.498,179.503,297.705,179.526z"/>
			<path d="M239.5,185.174l-14.207-2.063l-6.352-12.873c-0.338-0.683-1.033-1.115-1.795-1.115c-0.762,0-1.457,0.433-1.793,1.115
				l-6.354,12.873l-14.205,2.063c-0.754,0.109-1.381,0.638-1.615,1.361c-0.236,0.724-0.039,1.519,0.506,2.05l10.279,10.022
				l-2.426,14.147c-0.129,0.75,0.18,1.509,0.795,1.956c0.617,0.448,1.434,0.506,2.107,0.152l12.705-6.68l12.708,6.681
				c0.294,0.153,0.611,0.229,0.931,0.229c0.414,0,0.828-0.129,1.177-0.382c0.614-0.447,0.924-1.206,0.797-1.956l-2.429-14.148
				l10.279-10.022c0.545-0.531,0.739-1.326,0.506-2.05C240.879,185.812,240.254,185.284,239.5,185.174z"/>
			<path d="M309.236,86.661c-12.758-10.109-27.652-17.865-43.854-23.009V37.473c0-5.522-4.479-10-10-10h-4.629
				C247.584,11.821,233.721,0,217.147,0c-16.574,0-30.438,11.82-33.607,27.473h-4.627c-5.523,0-10,4.478-10,10v26.179
				c-16.199,5.144-31.098,12.899-43.855,23.009c-25.383,20.114-39.361,47.064-39.361,75.889c0,28.825,13.979,55.774,39.361,75.89
				c7.816,6.192,16.438,11.504,25.666,15.873c1.5,11.53,6.574,48.328,14.686,84.729c3.875,17.387,7.84,32.207,11.963,44.641
				l1.049,3.111c11.225,32.523,23.664,47.506,38.725,47.506c15.055,0,27.489-14.973,38.713-47.473l1.067-3.17
				c4.121-12.428,8.084-27.239,11.957-44.615c8.113-36.402,13.188-73.199,14.688-84.729c9.23-4.369,17.852-9.681,25.666-15.873
				c25.387-20.115,39.363-47.064,39.363-75.89C348.602,133.725,334.621,106.775,309.236,86.661z M217.147,20.001
				c5.413,0,10.133,3.025,12.557,7.473H204.59C207.016,23.026,211.735,20.001,217.147,20.001z M188.912,47.473h56.471v11.279
				c-9.176-1.611-18.629-2.441-28.235-2.441c-9.607,0-19.061,0.83-28.234,2.441L188.912,47.473L188.912,47.473z M217.147,76.311
				c39.04,0,73.45,15.615,93.362,39.194c-22.334,8.587-56.516,13.63-93.362,13.63c-36.847,0-71.029-5.043-93.361-13.63
				C143.698,91.926,178.108,76.311,217.147,76.311z M217.145,414.297c-0.094,0-6.273-0.904-15.271-22.238h30.544
				C223.416,413.393,217.237,414.297,217.145,414.297z M249.334,334.814c-3.369,15.105-6.645,27.332-9.736,37.244h-44.905
				c-3.09-9.912-6.365-22.139-9.734-37.244c-5.984-26.83-10.285-53.926-12.67-70.483c11.135,3.271,27.066,6.707,44.859,6.707
				c17.795,0,33.723-3.437,44.858-6.707C259.621,280.889,255.319,307.984,249.334,334.814z M217.147,248.788
				c-61.455,0-111.451-38.687-111.451-86.238c0-10.538,2.459-20.639,6.951-29.981c24.635,10.405,63.279,16.567,104.5,16.567
				c41.221,0,79.864-6.162,104.501-16.567c4.49,9.343,6.951,19.443,6.951,29.981C328.6,210.101,278.602,248.788,217.147,248.788z"/>
		</g>
	</g>
</g>
</svg>