<?xml version="1.0" encoding="iso-8859-1"?>
<!-- Uploaded to: SVG Repo, www.svgrepo.com, Generator: SVG Repo Mixer Tools -->
<!DOCTYPE svg PUBLIC "-//W3C//DTD SVG 1.1//EN" "http://www.w3.org/Graphics/SVG/1.1/DTD/svg11.dtd">
<svg fill="#000000" version="1.1" id="Capa_1" xmlns="http://www.w3.org/2000/svg" xmlns:xlink="http://www.w3.org/1999/xlink" 
	 width="800px" height="800px" viewBox="0 0 398.77 398.771"
	 xml:space="preserve">
<g>
	<g>
		<path d="M359.806,281.824l-0.291-0.545c-1.3-2.434-3.761-4.024-6.513-4.213c-16.591-1.131-31.174-10.541-39.009-25.172
			c-7.831-14.625-7.578-31.974,0.677-46.406c1.368-2.392,1.409-5.318,0.107-7.748l-1.913-3.574
			c-1.015-1.894-2.746-3.299-4.808-3.901c-2.058-0.604-4.277-0.352-6.151,0.695c-0.188,0.106-0.377,0.216-0.564,0.325
			c-0.119,0.069-0.237,0.141-0.341,0.196c-6.941,3.717-14.74,5.682-22.555,5.682c-17.712,0-33.904-9.689-42.26-25.285
			c-1.465-2.736-2.635-5.576-3.535-8.494c0.757-1.69,1.422-3.434,1.968-5.235c3.34-11.041,2.18-22.721-3.267-32.889
			c-4.803-8.969-12.481-15.758-21.553-19.511V35.359C209.799,15.862,193.937,0,174.44,0c-19.498,0-35.361,15.862-35.361,35.359
			v73.989c-9.193,5.946-16.021,15.357-18.603,26.754c-2.551,11.249-0.567,22.819,5.586,32.577c1.052,1.668,2.211,3.242,3.454,4.729
			c-0.072,2.7-0.57,5.61-1.319,8.924c-4.979,21.965-24.159,37.307-46.644,37.308c-3.553,0-7.131-0.401-10.677-1.206
			c-0.107-0.023-0.212-0.055-0.318-0.083c-0.226-0.062-0.451-0.12-0.679-0.175c-2.082-0.508-4.28-0.154-6.101,0.977
			c-1.82,1.129-3.112,2.939-3.586,5.029l-0.896,3.955c-0.609,2.688,0.207,5.5,2.162,7.441c11.792,11.722,16.644,28.38,12.979,44.561
			c-3.669,16.188-15.229,29.133-30.924,34.628c-2.607,0.913-4.56,3.106-5.163,5.802l-0.135,0.603
			c-0.566,2.531,0.129,5.181,1.865,7.105c1.737,1.927,4.299,2.889,6.877,2.588c5.375-0.636,10.866-0.341,16.172,0.861
			c12.473,2.825,23.099,10.339,29.92,21.157c6.821,10.818,9.021,23.646,6.195,36.118c-0.134,0.594-0.198,1.187-0.199,1.771
			c-0.002,3.656,2.519,6.958,6.234,7.8c0.596,0.136,1.189,0.199,1.774,0.199c3.654,0,6.954-2.521,7.796-6.233
			c4.896-21.618,24.513-37.309,46.643-37.309c3.554,0,7.13,0.402,10.635,1.196c5.328,1.206,10.361,3.29,14.96,6.193
			c2.198,1.389,4.936,1.621,7.34,0.625c2.401-0.998,4.17-3.103,4.737-5.641l0.136-0.602c0.601-2.683-0.218-5.484-2.166-7.422
			c-11.791-11.726-16.641-28.39-12.972-44.577c1.718-7.58,5.181-14.436,9.979-20.156c8.666,4.348,15.915,11.284,20.67,20.162
			c7.836,14.631,7.586,31.984-0.67,46.421c-1.372,2.399-1.409,5.338-0.097,7.771l0.293,0.543c1.23,2.281,3.492,3.824,6.065,4.142
			c2.566,0.312,5.142-0.635,6.888-2.551c3.67-4.026,7.97-7.373,12.781-9.948c6.94-3.718,14.739-5.684,22.554-5.684
			c17.712,0,33.903,9.689,42.257,25.287c1.442,2.693,4.205,4.227,7.06,4.227c0.218,0,0.434-0.009,0.649-0.027
			c4.121-0.324,7.364-3.771,7.364-7.975c0-1.548-0.44-2.993-1.201-4.218c-5.838-11.171-7.043-23.943-3.388-36.025
			c3.701-12.241,11.95-22.308,23.227-28.346c4.813-2.578,9.982-4.303,15.362-5.124c2.565-0.392,4.782-2.005,5.944-4.326
			C361.065,286.855,361.029,284.115,359.806,281.824z M177.817,193.577c0.536-2.361,1.246-4.653,2.114-6.876
			c2.125,0.691,4.311,1.22,6.545,1.576c1.719,2.09,3.252,4.617,4.859,7.618c6.037,11.276,7.323,24.229,3.62,36.469
			c-0.745,2.467-1.684,4.838-2.785,7.11c-3.104-2.848-5.852-6.121-8.158-9.78C177.191,218.875,174.99,206.049,177.817,193.577z
			 M217.248,132.815c3.429,6.4,4.158,13.753,2.057,20.703c-2.102,6.95-6.785,12.666-13.188,16.094
			c-3.999,2.142-8.306,3.228-12.802,3.228c0,0-0.001,0-0.002,0c-10.06-0.001-19.254-5.503-23.996-14.359
			c-7.076-13.214-2.082-29.722,11.133-36.799c3.998-2.142,8.307-3.228,12.804-3.228
			C203.311,118.453,212.504,123.956,217.248,132.815z M155.079,35.36c0-10.675,8.687-19.359,19.361-19.359
			s19.359,8.685,19.359,19.359v67.112c-0.185-0.002-0.363-0.019-0.547-0.019c-5.224,0-10.433,0.975-15.322,2.836
			c-1.863-0.708-3.792-1.306-5.791-1.759c-3.149-0.714-6.371-1.076-9.576-1.076c-2.549,0-5.05,0.219-7.484,0.64V35.36L155.079,35.36
			z M136.081,139.639c2.559-11.295,12.197-19.721,23.509-20.997c-10.466,13.095-12.778,31.702-4.377,47.391
			c1.271,2.375,2.76,4.584,4.407,6.64c-1.018-0.113-2.03-0.283-3.033-0.511c-7.082-1.605-13.117-5.872-16.99-12.015
			C135.724,154.004,134.475,146.721,136.081,139.639z M168.559,301.468c-2.987,13.181-1.743,26.595,3.254,38.603
			c-3.42-0.559-6.877-0.841-10.319-0.841c-14.254,0-28.298,4.888-39.546,13.763c-2.903,2.29-5.591,4.826-8.036,7.567
			c-1.652-5.646-4.103-11.096-7.327-16.21c-8.399-13.321-21.125-22.888-36.12-27.247c9.685-8.68,16.591-20.247,19.578-33.427
			c3.796-16.758,0.749-33.896-8.157-48.036c14.14-0.075,28.053-4.956,39.213-13.762c11.42-9.011,19.482-21.798,22.704-36.011
			c0.091-0.4,0.173-0.807,0.26-1.21c0.447,0.211,0.896,0.418,1.351,0.614l-26.908,118.748c-0.977,4.31,1.725,8.594,6.034,9.569
			c0.595,0.136,1.189,0.2,1.774,0.2c3.654,0,6.954-2.521,7.795-6.234l26.911-118.76c0.498,0.019,0.996,0.041,1.493,0.042
			c-0.101,0.401-0.207,0.799-0.299,1.203c-3.771,16.641-0.836,33.754,8.265,48.188c3.43,5.439,7.597,10.236,12.332,14.324
			c-3.241,3.195-6.956,5.95-11.082,8.159c-0.115,0.062-0.232,0.116-0.348,0.172c-0.189,0.092-0.377,0.185-0.564,0.278
			c-1.917,0.975-3.361,2.681-4.007,4.731c-0.646,2.054-0.438,4.278,0.578,6.175l1.914,3.576c1.301,2.43,3.761,4.02,6.511,4.206
			c0.654,0.044,1.301,0.124,1.948,0.194C173.479,286.447,170.325,293.67,168.559,301.468z M300.053,322.339
			c-1.748,5.779-2.663,11.677-2.758,17.552c-10.144-6.54-22.118-10.188-34.668-10.188c-9.141,0-18.257,2.009-26.597,5.835
			c1.63-12.905-0.733-26.17-7.113-38.082c-8.109-15.144-21.636-26.091-37.622-30.939c8.899-7.786,15.468-17.921,18.977-29.521
			c4.939-16.332,3.226-33.61-4.832-48.654c-0.197-0.368-0.404-0.735-0.606-1.104c0.478-0.133,0.957-0.257,1.431-0.406
			l57.484,107.341c1.441,2.693,4.205,4.226,7.06,4.226c1.274,0,2.567-0.306,3.771-0.948c3.896-2.087,5.361-6.936,3.275-10.829
			l-57.481-107.337c0.391-0.312,0.771-0.633,1.147-0.958c0.188,0.369,0.367,0.74,0.563,1.106
			c11.145,20.807,32.742,33.732,56.363,33.732c5.582,0,11.156-0.75,16.553-2.205c-4.835,16.003-3.224,33.339,4.89,48.488
			c6.38,11.914,16.109,21.23,27.753,27.027C314.341,294.66,304.614,307.264,300.053,322.339z"/>
	</g>
</g>
</svg>