<?xml version="1.0" encoding="iso-8859-1"?>
<!-- Uploaded to: SVG Repo, www.svgrepo.com, Generator: SVG Repo Mixer Tools -->
<!DOCTYPE svg PUBLIC "-//W3C//DTD SVG 1.1//EN" "http://www.w3.org/Graphics/SVG/1.1/DTD/svg11.dtd">
<svg fill="#000000" height="800px" width="800px" version="1.1" id="Capa_1" xmlns="http://www.w3.org/2000/svg" xmlns:xlink="http://www.w3.org/1999/xlink" 
	 viewBox="0 0 470 470" xml:space="preserve">
<g>
	<path d="M287.833,97.666c-12.674-16.283-23.869-30.693-29.906-45.08c1.846-1.366,3.048-3.553,3.048-6.026
		c0-3.677-2.647-6.73-6.139-7.371V19.837C254.837,8.898,245.938,0,235,0s-19.837,8.898-19.837,19.837v19.352
		c-3.491,0.641-6.139,3.694-6.139,7.371c0,2.473,1.202,4.66,3.048,6.026c-6.037,14.387-17.232,28.797-29.906,45.08
		c-27.754,35.656-62.294,80.032-62.294,151.923c0,71.794,34.512,116.134,62.243,151.763c15.067,19.358,28.081,36.077,32.76,53.25
		C217.347,463.668,225.622,470,235,470c9.383,0,17.659-6.337,20.127-15.41c4.674-17.178,17.69-33.9,32.763-53.263
		c27.729-35.622,62.237-79.955,62.237-151.738C350.127,177.698,315.587,133.322,287.833,97.666z M335.114,250.456
		c-45.731,6.256-72.457,1.148-100.667-4.255c-26.958-5.163-54.783-10.491-99.377-5.185c0.626-15.091,2.875-28.801,6.325-41.383
		c41.934-15.352,68.314-15.358,96.192-15.358c23.667-0.001,48.096-0.006,82.015-9.897c9.319,21.131,15.526,45.564,15.526,75.21
		C335.127,249.882,335.115,250.164,335.114,250.456z M312.92,160.69c-30.499,8.578-52.334,8.585-75.333,8.586
		c-25.572,0-51.931,0.011-90.233,12.436c7.42-18.966,17.43-35.301,28.056-50.213c26.191-14.103,46.721-18.644,68.43-23.44
		c8.957-1.978,18.178-4.021,27.807-6.781c1.431,1.848,2.877,3.71,4.35,5.602C288.65,123.137,302.066,140.394,312.92,160.69z
		 M227.588,54.06h14.824c4.183,11.716,11.103,22.808,19.499,34.338c-7.115,1.873-14.077,3.418-21.307,5.015
		c-14.567,3.218-29.461,6.508-46.127,12.858C208.803,87.865,221.302,71.668,227.588,54.06z M235,15c2.667,0,4.837,2.17,4.837,4.837
		V39.06h-9.674V19.837C230.163,17.17,232.333,15,235,15z M240.652,450.653c-0.696,2.56-3.021,4.347-5.652,4.347
		c-2.631,0-4.955-1.785-5.651-4.342c-4.713-17.298-15.671-32.926-28.886-50.12c6.586,3.524,12.973,7.154,19.514,10.874
		c9.666,5.496,19.616,11.14,30.51,16.543C246.185,435.379,242.777,442.845,240.652,450.653z M276.054,392.113
		c-6.261,8.043-12.18,15.657-17.407,23.146c-11.121-5.446-21.337-11.246-31.256-16.886c-14.395-8.185-29.272-16.636-47.214-24.235
		c-13.029-17.576-25.605-36.955-34.188-60.313c10.987,1.331,21.386,3.228,31.531,5.744c0.606,0.15,1.214,0.223,1.812,0.223
		c3.365,0,6.427-2.282,7.273-5.696c0.997-4.021-1.453-8.088-5.474-9.085c-12.804-3.176-25.967-5.411-40.076-6.813
		c-3.403-12.779-5.589-26.696-6.073-42.056c43.317-5.41,69.265-0.452,96.645,4.792c19.055,3.649,38.525,7.38,64.048,7.379
		c11.525,0,24.292-0.765,38.802-2.637c-2.498,31.297-12.144,56.435-24.536,78.117c-33.66-4.155-55.659-12.794-78.88-21.919
		c-6.615-2.601-13.457-5.289-20.52-7.833c-3.895-1.403-8.193,0.615-9.598,4.514c-1.404,3.896,0.616,8.194,4.514,9.598
		c6.86,2.473,13.6,5.121,20.117,7.683c21.593,8.485,43.851,17.225,75.756,21.926C293.218,370.051,284.467,381.304,276.054,392.113z"
		/>
</g>
</svg>