<?xml version="1.0" encoding="iso-8859-1"?>
<!-- Uploaded to: SVG Repo, www.svgrepo.com, Generator: SVG Repo Mixer Tools -->
<!DOCTYPE svg PUBLIC "-//W3C//DTD SVG 1.1//EN" "http://www.w3.org/Graphics/SVG/1.1/DTD/svg11.dtd">
<svg fill="#000000" version="1.1" id="Capa_1" xmlns="http://www.w3.org/2000/svg" xmlns:xlink="http://www.w3.org/1999/xlink" 
	 width="800px" height="800px" viewBox="0 0 418.921 418.921"
	 xml:space="preserve">
<g>
	<g id="Layer_2_9_">
		<path d="M335.561,348.068L167.313,108.285c-1.779-2.536-2.465-5.622-1.926-8.689c0.537-3.068,2.23-5.737,4.768-7.517
			c1.961-1.376,4.26-2.104,6.65-2.104c3.811,0,7.383,1.849,9.555,4.944c8.416,11.996,22.199,19.158,36.867,19.157
			c9.275,0,18.203-2.824,25.816-8.166c9.84-6.904,16.402-17.227,18.479-29.066c2.076-11.84-0.584-23.779-7.488-33.618
			C241.041,16.16,209.891,0,176.705,0c-20.943,0-41.086,6.365-58.246,18.407C96.268,33.977,81.463,57.294,76.77,84.061
			c-4.691,26.768,1.299,53.73,16.871,75.921l168.246,239.783c8.416,11.995,22.197,19.156,36.865,19.156
			c9.274,0,18.203-2.824,25.815-8.167C344.881,396.502,349.812,368.382,335.561,348.068z M199.881,276.576l69.65,12.211
			l29.704,42.334l-69.649-12.211L199.881,276.576z M253.285,265.634l-69.648-12.211l-29.705-42.335l69.648,12.211L253.285,265.634z
			 M96.469,87.514c1.051-5.988,2.752-11.75,5.014-17.233c6.172,6.724,15.881,13.314,30.986,18.537
			c4.859,1.68,9.639,2.999,13.98,4.029c-0.309,1.078-0.566,2.176-0.764,3.296c-1.459,8.33,0.406,16.722,5.256,23.631l10.445,14.886
			l-63.189-11.078C94.963,111.997,94.328,99.732,96.469,87.514z M243.662,54.715c3.836,5.466,5.312,12.099,4.16,18.676
			c-1.154,6.577-4.801,12.312-10.269,16.148c-4.229,2.969-9.187,4.538-14.328,4.538c-8.155,0-15.818-3.978-20.494-10.645
			c-4.271-6.084-10.516-10.385-17.539-12.313c0.996-11.943,6.24-33.908,30.717-41.139C226.807,35.91,236.357,44.305,243.662,54.715z
			 M129.947,34.779C143.724,25.111,159.894,20,176.705,20c4.367,0,8.689,0.354,12.934,1.032
			c-11.025,8.465-17.018,19.499-20.27,28.916c-2.924,8.462-3.941,16.523-4.25,22.269c-1.957,0.781-3.832,1.78-5.621,2.954
			c-15.443-2.709-40.998-9.987-46.975-23.889C117.422,45.026,123.268,39.465,129.947,34.779z M108.1,145.622l69.531,12.19
			l29.705,42.333l-69.65-12.211l-27.674-39.441C109.348,147.549,108.719,146.588,108.1,145.622z M313.082,394.381
			c-4.232,2.969-9.188,4.539-14.33,4.539c-8.156,0-15.818-3.979-20.494-10.644l-32.428-46.214l69.651,12.212l3.705,5.281
			C327.105,370.841,324.367,386.463,313.082,394.381z"/>
	</g>
</g>
</svg>