<?xml version="1.0" encoding="iso-8859-1"?>
<!-- Uploaded to: SVG Repo, www.svgrepo.com, Generator: SVG Repo Mixer Tools -->
<!DOCTYPE svg PUBLIC "-//W3C//DTD SVG 1.1//EN" "http://www.w3.org/Graphics/SVG/1.1/DTD/svg11.dtd">
<svg fill="#000000" height="800px" width="800px" version="1.1" id="Capa_1" xmlns="http://www.w3.org/2000/svg" xmlns:xlink="http://www.w3.org/1999/xlink" 
	 viewBox="0 0 297 297" xml:space="preserve">
<g>
	<path d="M172.499,57.824c1.281-1.673,2.05-3.757,2.05-6.026c0-5.486-4.448-9.933-9.933-9.933h-6.183V9.933
		c0-5.485-4.448-9.933-9.933-9.933c-5.486,0-9.933,4.448-9.933,9.933v31.932h-6.183c-5.485,0-9.933,4.448-9.933,9.933
		c0,2.269,0.769,4.354,2.05,6.026c-55.145,11.161-96.788,60.002-96.788,118.39C27.713,242.815,81.898,297,148.5,297
		s120.787-54.185,120.787-120.786C269.287,117.826,227.644,68.985,172.499,57.824z M130.093,275.446
		c-17.126-3.169-32.751-10.673-45.685-21.333L226.1,111.763c10.749,12.92,18.335,28.556,21.57,45.712L130.093,275.446z
		 M48.646,190.868L164.655,76.591c17.731,2.865,33.928,10.365,47.306,21.214L70.386,240.04
		C59.07,226.216,51.346,209.347,48.646,190.868z M69.574,113.394c0.432,0.755,0.954,1.459,1.574,2.078
		c1.847,1.847,4.41,2.91,7.023,2.91c2.612,0,5.175-1.063,7.022-2.91c1.848-1.848,2.911-4.411,2.911-7.023
		c0-2.612-1.063-5.175-2.911-7.023c-0.705-0.705-1.516-1.294-2.393-1.755c14.926-12.831,33.633-21.375,54.197-23.72L48.415,163.21
		C50.828,144.533,58.37,127.442,69.574,113.394z M222.864,244.366c-0.2-2.316-1.218-4.531-2.869-6.189
		c-1.847-1.848-4.41-2.911-7.022-2.911c-2.613,0-5.175,1.063-7.033,2.911c-1.848,1.857-2.9,4.41-2.9,7.022
		c0,2.612,1.052,5.175,2.9,7.023c1.502,1.502,3.466,2.466,5.544,2.784c-15.247,12.213-34.099,20.1-54.681,21.784l92.305-92.615
		C247.296,207.285,237.664,228.231,222.864,244.366z"/>
	<path d="M182.389,94.096c-1.858-1.847-4.411-2.9-7.023-2.9c-2.622,0-5.175,1.053-7.023,2.9c-1.858,1.858-2.92,4.42-2.92,7.033
		c0,2.612,1.062,5.175,2.92,7.023c1.838,1.848,4.401,2.91,7.023,2.91c2.612,0,5.165-1.062,7.023-2.91
		c1.847-1.848,2.91-4.411,2.91-7.023C185.299,98.516,184.236,95.953,182.389,94.096z"/>
	<path d="M143.123,127.332c-2.612,0-5.165,1.063-7.023,2.911c-1.847,1.847-2.91,4.41-2.91,7.022c0,2.623,1.063,5.175,2.91,7.023
		c1.858,1.858,4.411,2.91,7.023,2.91c2.622,0,5.175-1.052,7.023-2.91c1.857-1.848,2.91-4.411,2.91-7.023
		c0-2.612-1.053-5.175-2.91-7.022C148.298,128.395,145.745,127.332,143.123,127.332z"/>
	<path d="M110.89,159.565c-2.612,0-5.175,1.063-7.023,2.91c-1.847,1.848-2.91,4.411-2.91,7.023c0,2.612,1.063,5.175,2.91,7.023
		c1.848,1.847,4.411,2.91,7.023,2.91c2.612,0,5.175-1.063,7.023-2.91c1.858-1.848,2.91-4.411,2.91-7.023
		c0-2.612-1.053-5.175-2.91-7.023C116.065,160.628,113.502,159.565,110.89,159.565z"/>
	<path d="M78.657,191.798c-2.612,0-5.175,1.063-7.022,2.91c-1.848,1.848-2.911,4.411-2.911,7.023c0,2.622,1.063,5.175,2.911,7.023
		c1.847,1.858,4.41,2.91,7.022,2.91c2.612,0,5.175-1.053,7.023-2.91c1.848-1.848,2.91-4.401,2.91-7.023
		c0-2.612-1.062-5.175-2.91-7.023C83.832,192.861,81.269,191.798,78.657,191.798z"/>
	<path d="M227.316,141.964c-1.848-1.848-4.41-2.91-7.023-2.91c-2.612,0-5.175,1.062-7.022,2.91c-1.848,1.848-2.911,4.41-2.911,7.023
		c0,2.622,1.063,5.175,2.911,7.022c1.847,1.848,4.41,2.911,7.022,2.911c2.613,0,5.175-1.063,7.023-2.911
		c1.858-1.847,2.91-4.41,2.91-7.022C230.226,146.374,229.174,143.812,227.316,141.964z"/>
	<path d="M188.061,175.2c-2.612,0-5.175,1.052-7.023,2.91c-1.848,1.848-2.91,4.401-2.91,7.023c0,2.612,1.062,5.175,2.91,7.023
		c1.848,1.847,4.411,2.91,7.023,2.91c2.612,0,5.175-1.063,7.022-2.91c1.848-1.858,2.911-4.411,2.911-7.023
		c0-2.612-1.063-5.175-2.911-7.023C193.236,176.253,190.673,175.2,188.061,175.2z"/>
	<path d="M155.828,207.433c-2.623,0-5.175,1.062-7.023,2.91c-1.847,1.848-2.91,4.411-2.91,7.023s1.063,5.175,2.91,7.022
		c1.848,1.848,4.411,2.911,7.023,2.911c2.612,0,5.175-1.063,7.023-2.911c1.847-1.847,2.91-4.41,2.91-7.022s-1.063-5.175-2.91-7.023
		C161.003,208.495,158.44,207.433,155.828,207.433z"/>
	<path d="M123.594,239.666c-2.622,0-5.175,1.062-7.033,2.91c-1.848,1.847-2.9,4.41-2.9,7.023c0,2.612,1.052,5.175,2.9,7.022
		c1.858,1.848,4.42,2.911,7.033,2.911c2.612,0,5.165-1.063,7.023-2.911c1.847-1.847,2.91-4.41,2.91-7.022
		c0-2.613-1.063-5.176-2.91-7.023C128.77,240.729,126.207,239.666,123.594,239.666z"/>
</g>
</svg>