<?xml version="1.0" encoding="iso-8859-1"?>
<!-- Uploaded to: SVG Repo, www.svgrepo.com, Generator: SVG Repo Mixer Tools -->
<!DOCTYPE svg PUBLIC "-//W3C//DTD SVG 1.1//EN" "http://www.w3.org/Graphics/SVG/1.1/DTD/svg11.dtd">
<svg fill="#000000" version="1.1" id="Capa_1" xmlns="http://www.w3.org/2000/svg" xmlns:xlink="http://www.w3.org/1999/xlink" 
	 width="800px" height="800px" viewBox="0 0 428.639 428.639"
	 xml:space="preserve">
<g>
	<g id="Layer_2_44_">
		<path d="M283.707,105.761c0.127-0.636,0.195-1.292,0.195-1.966c0.004-7.817,0.002-15.633,0-23.45v-5.861
			c0-3.684-2.025-7.07-5.271-8.811c-9.508-5.101-19.047-9.057-28.603-11.884c1.987-4.713,3.042-9.81,3.042-15.039
			C253.07,17.383,235.688,0,214.32,0s-38.75,17.383-38.75,38.75c0,5.229,1.055,10.327,3.042,15.04
			c-9.555,2.827-19.093,6.783-28.602,11.882c-3.248,1.742-5.274,5.128-5.274,8.814c0.001,9.768,0.001,19.536-0.001,29.304
			c0,0.675,0.069,1.334,0.196,1.972c-58.622,26.521-99.509,85.565-99.509,153.979c0,93.131,75.767,168.898,168.897,168.898
			c93.13,0,168.898-75.768,168.898-168.898C383.219,191.327,342.33,132.283,283.707,105.761z M214.32,20.001
			c10.339,0,18.75,8.411,18.75,18.75c0,3.407-0.918,6.703-2.633,9.578h-32.234c-1.714-2.875-2.632-6.171-2.632-9.578
			C195.57,28.412,203.981,20.001,214.32,20.001z M164.737,80.6c33.313-16.203,65.86-16.203,99.167,0
			c0.001,5.892,0,11.783-0.001,17.674c-15.687-4.827-32.335-7.432-49.583-7.432s-33.898,2.605-49.584,7.432
			C164.737,92.383,164.738,86.492,164.737,80.6z M214.32,110.843c47.674,0,90.184,22.525,117.453,57.489
			c-7.277,2.548-12.158,7.041-16.057,10.645c-4.955,4.58-7.945,7.344-14.854,7.344c-6.906,0-9.896-2.764-14.852-7.344
			c-5.777-5.341-13.693-12.656-28.426-12.656s-22.646,7.315-28.424,12.657c-4.954,4.579-7.943,7.343-14.848,7.343
			s-9.895-2.764-14.85-7.343c-5.778-5.342-13.692-12.657-28.424-12.657s-22.646,7.315-28.424,12.657
			c-4.954,4.579-7.944,7.343-14.848,7.343s-9.894-2.764-14.847-7.343c-3.897-3.603-8.777-8.096-16.055-10.644
			C124.137,133.369,166.645,110.843,214.32,110.843z M84.818,186.328c6.671,0.087,9.652,2.83,14.526,7.335
			c5.779,5.342,13.693,12.657,28.424,12.657c14.732,0,22.646-7.315,28.424-12.657c4.954-4.579,7.944-7.343,14.848-7.343
			c6.904,0,9.895,2.764,14.849,7.343c5.778,5.341,13.692,12.657,28.425,12.657c14.732,0,22.646-7.315,28.424-12.657
			c4.953-4.579,7.943-7.343,14.848-7.343c6.906,0,9.896,2.764,14.852,7.344c5.779,5.342,13.695,12.656,28.428,12.656
			s22.646-7.314,28.428-12.656c4.875-4.506,7.855-7.248,14.529-7.335c12.336,21.679,19.396,46.736,19.396,73.414
			c0,12.838-1.633,25.302-4.703,37.195c-0.758-0.166-1.541-0.26-2.348-0.26c-16.098,0-24.746,7.993-31.061,13.829
			c-5.414,5.003-8.682,8.022-16.227,8.022c-7.547,0-10.814-3.02-16.229-8.022c-6.314-5.836-14.963-13.829-31.061-13.829
			c-16.097,0-24.742,7.993-31.057,13.829c-5.413,5.003-8.68,8.022-16.224,8.022c-7.544,0-10.812-3.02-16.225-8.022
			c-6.314-5.836-14.961-13.829-31.058-13.829c-16.096,0-24.743,7.993-31.057,13.829c-5.412,5.003-8.679,8.022-16.223,8.022
			s-10.811-3.02-16.223-8.022c-6.314-5.836-14.96-13.829-31.057-13.829c-0.807,0-1.59,0.094-2.347,0.26
			c-3.069-11.894-4.703-24.357-4.703-37.195C65.423,233.064,72.481,208.007,84.818,186.328z M214.32,408.639
			c-60.979,0-113.504-36.852-136.5-89.447c4.134,1.143,6.941,3.725,10.875,7.36c6.313,5.836,14.96,13.829,31.056,13.829
			c16.096,0,24.743-7.993,31.057-13.829c5.412-5.003,8.679-8.022,16.223-8.022s10.812,3.02,16.225,8.022
			c6.314,5.836,14.961,13.829,31.058,13.829c16.097,0,24.743-7.993,31.057-13.829c5.413-5.003,8.68-8.022,16.225-8.022
			s10.812,3.02,16.227,8.023c6.314,5.836,14.963,13.829,31.061,13.829s24.746-7.993,31.061-13.829
			c3.936-3.639,6.744-6.22,10.879-7.361C327.824,371.787,275.299,408.639,214.32,408.639z"/>
	</g>
</g>
</svg>