<?xml version="1.0" encoding="iso-8859-1"?>
<!-- Uploaded to: SVG Repo, www.svgrepo.com, Generator: SVG Repo Mixer Tools -->
<!DOCTYPE svg PUBLIC "-//W3C//DTD SVG 1.1//EN" "http://www.w3.org/Graphics/SVG/1.1/DTD/svg11.dtd">
<svg fill="#000000" height="800px" width="800px" version="1.1" id="Capa_1" xmlns="http://www.w3.org/2000/svg" xmlns:xlink="http://www.w3.org/1999/xlink" 
	 viewBox="0 0 470 470" xml:space="preserve">
<g>
	<path d="M370.026,161.547c-25.85-27.98-59.324-47.005-95.999-54.935V88.127c3.403-2.116,6.383-5.161,8.643-8.967
		c0.688-1.159,1.052-2.482,1.052-3.83V44.482c0-4.142-3.357-7.5-7.5-7.5h-11.04v-6.8C265.182,13.54,251.643,0,235,0
		s-30.182,13.54-30.182,30.182v6.8h-11.04c-4.143,0-7.5,3.358-7.5,7.5V75.33c0,1.346,0.362,2.667,1.049,3.825
		c2.259,3.81,5.24,6.859,8.646,8.975v18.482c-36.675,7.93-70.149,26.955-95.999,54.935c-31.441,34.032-48.757,78.307-48.757,124.67
		C51.217,387.555,133.662,470,235,470s183.783-82.445,183.783-183.783C418.783,239.854,401.468,195.579,370.026,161.547z
		 M385.937,361.692c-5.196-1.44-8.804-4.142-13.109-7.379c-7.172-5.393-15.301-11.505-31.104-11.505s-23.933,6.113-31.105,11.505
		c-6.312,4.746-11.296,8.495-22.09,8.495c-10.791,0-15.775-3.749-22.086-8.494c-7.171-5.393-15.299-11.506-31.102-11.506
		c-15.804,0-23.932,6.113-31.104,11.506c-6.311,4.746-11.295,8.494-22.087,8.494c-10.791,0-15.774-3.749-22.085-8.494
		c-7.171-5.394-15.299-11.506-31.102-11.506s-23.931,6.113-31.102,11.506c-4.461,3.355-8.188,6.147-13.717,7.541
		c-7.301-14.502-12.572-30.192-15.436-46.698h332.583C398.438,331.602,393.195,347.236,385.937,361.692z M66.797,300.156
		c-0.378-4.598-0.58-9.245-0.58-13.939c0-4.611,0.202-9.183,0.576-13.712h54.466c4.143,0,7.5-3.358,7.5-7.5s-3.357-7.5-7.5-7.5
		H68.716c2.879-16.438,8.179-32.131,15.526-46.673c5.475,1.402,9.185,4.18,13.619,7.515c7.171,5.393,15.299,11.506,31.102,11.506
		s23.931-6.113,31.102-11.506c6.311-4.745,11.294-8.494,22.085-8.494c10.792,0,15.776,3.749,22.087,8.494
		c7.172,5.393,15.3,11.506,31.104,11.506c15.803,0,23.931-6.113,31.102-11.506c6.311-4.746,11.295-8.494,22.086-8.494
		c10.794,0,15.778,3.749,22.09,8.495c7.173,5.393,15.302,11.505,31.105,11.505s23.933-6.113,31.105-11.506
		c4.278-3.217,7.868-5.905,13.011-7.352c7.304,14.496,12.577,30.133,15.445,46.51H151.259c-4.143,0-7.5,3.358-7.5,7.5
		s3.357,7.5,7.5,7.5h251.949c0.374,4.529,0.576,9.101,0.576,13.712c0,4.694-0.202,9.341-0.58,13.939H66.797z M219.818,30.182
		C219.818,21.811,226.629,15,235,15s15.182,6.811,15.182,15.182v6.8h-30.363V30.182z M201.278,51.982h67.443v21.051
		c-1.764,2.224-3.973,3.467-6.243,3.467c-2.749,0-5.405-1.821-7.287-4.995c-1.351-2.278-3.803-3.675-6.451-3.675
		c-2.652,0.001-5.104,1.399-6.454,3.679c-1.877,3.172-4.534,4.991-7.288,4.991c-2.749,0-5.405-1.82-7.286-4.994
		c-1.351-2.278-3.802-3.675-6.449-3.676c-2.649,0-5.101,1.395-6.451,3.67c-1.888,3.177-4.546,5-7.295,5
		c-2.271,0-4.479-1.243-6.238-3.464V51.982z M220.63,118.048c4.128-0.348,7.191-3.976,6.844-8.104
		c-0.349-4.127-3.987-7.193-8.104-6.844c-2.813,0.237-5.612,0.54-8.397,0.904V91.206c3.705-0.615,7.22-2.199,10.284-4.612
		c4.004,3.153,8.775,4.905,13.741,4.905c4.969,0,9.741-1.751,13.744-4.902c3.063,2.412,6.579,3.996,10.285,4.609v12.798
		c-2.785-0.364-5.585-0.667-8.397-0.904c-4.127-0.354-7.756,2.715-8.104,6.844c-0.348,4.127,2.716,7.755,6.844,8.104
		c54.521,4.595,101.597,35.59,128.992,79.633c-6.031,2.287-10.474,5.613-14.549,8.677c-6.312,4.746-11.296,8.495-22.09,8.495
		s-15.778-3.749-22.09-8.495c-7.173-5.393-15.302-11.505-31.105-11.505c-15.803,0-23.931,6.113-31.102,11.506
		c-6.311,4.746-11.295,8.494-22.086,8.494c-10.793,0-15.777-3.749-22.088-8.494c-7.172-5.393-15.3-11.506-31.103-11.506
		c-15.802,0-23.93,6.113-31.101,11.506c-6.311,4.746-11.295,8.494-22.086,8.494s-15.775-3.749-22.086-8.494
		c-4.206-3.163-8.795-6.599-15.11-8.887C119.181,153.539,166.195,122.636,220.63,118.048z M235,455
		c-60.419,0-113.515-31.918-143.34-79.771c6.371-2.288,10.987-5.746,15.217-8.927c6.311-4.746,11.295-8.494,22.086-8.494
		s15.775,3.749,22.086,8.494c7.171,5.393,15.299,11.506,31.101,11.506c15.803,0,23.931-6.113,31.103-11.506
		c6.311-4.746,11.295-8.494,22.088-8.494c10.791,0,15.775,3.749,22.086,8.494c7.171,5.393,15.299,11.506,31.102,11.506
		c15.804,0,23.933-6.113,31.105-11.505c6.312-4.746,11.296-8.495,22.09-8.495s15.778,3.749,22.09,8.494
		c4.1,3.083,8.571,6.43,14.657,8.718C348.67,422.99,295.507,455,235,455z"/>
	<path d="M123.233,204.193c1.425,1.687,3.521,2.66,5.729,2.66s4.305-0.973,5.729-2.66l7.574-8.967
		c2.673-3.165,2.274-7.896-0.89-10.569s-7.896-2.274-10.569,0.89l-1.845,2.184l-1.845-2.184c-2.673-3.165-7.404-3.563-10.569-0.89
		c-3.164,2.673-3.563,7.405-0.89,10.569L123.233,204.193z"/>
	<path d="M229.61,204.193c1.426,1.687,3.521,2.66,5.729,2.66c2.209,0,4.305-0.973,5.729-2.66l7.574-8.967
		c2.673-3.165,2.274-7.896-0.89-10.569c-3.165-2.673-7.897-2.274-10.569,0.89l-1.845,2.185l-1.846-2.185
		c-2.673-3.165-7.405-3.564-10.569-0.889c-3.164,2.673-3.563,7.405-0.89,10.569L229.61,204.193z"/>
	<path d="M335.993,204.193c1.425,1.687,3.521,2.66,5.729,2.66s4.305-0.973,5.729-2.66l7.574-8.967
		c2.673-3.165,2.274-7.896-0.89-10.569c-3.165-2.673-7.896-2.274-10.569,0.89l-1.845,2.184l-1.845-2.184
		c-2.672-3.165-7.404-3.563-10.569-0.89c-3.164,2.673-3.563,7.405-0.89,10.569L335.993,204.193z"/>
	<path d="M134.692,368.468c-1.425-1.687-3.521-2.66-5.729-2.66s-4.305,0.973-5.729,2.66l-7.574,8.967
		c-2.673,3.165-2.274,7.896,0.89,10.569c3.165,2.673,7.896,2.274,10.569-0.89l1.845-2.184l1.845,2.184
		c1.483,1.756,3.602,2.66,5.733,2.66c1.709,0,3.428-0.581,4.836-1.771c3.164-2.673,3.563-7.405,0.89-10.569L134.692,368.468z"/>
	<path d="M241.069,368.468c-1.425-1.687-3.521-2.66-5.729-2.66c-2.208,0-4.305,0.973-5.729,2.66l-7.575,8.967
		c-2.673,3.164-2.274,7.896,0.89,10.569c1.408,1.19,3.126,1.771,4.836,1.771c2.132,0,4.25-0.904,5.733-2.66l1.846-2.185l1.845,2.185
		c2.672,3.164,7.404,3.563,10.569,0.89c3.164-2.673,3.563-7.405,0.89-10.569L241.069,368.468z"/>
	<path d="M347.452,368.468c-1.425-1.687-3.521-2.66-5.729-2.66s-4.305,0.973-5.729,2.66l-7.574,8.967
		c-2.673,3.165-2.274,7.896,0.89,10.569c3.165,2.673,7.897,2.274,10.569-0.89l1.845-2.184l1.845,2.184
		c1.483,1.756,3.602,2.66,5.733,2.66c1.709,0,3.428-0.581,4.836-1.771c3.164-2.673,3.563-7.405,0.89-10.569L347.452,368.468z"/>
</g>
</svg>