<?xml version="1.0" encoding="UTF-8" standalone="no"?>
<svg
   width="182.36055"
   height="230.95743"
   viewBox="0 0 182.36055 230.95742"
   version="1.1"
   id="svg91"
   sodipodi:docname="tree_script.svg"
   inkscape:version="1.3.2 (091e20ef0f, 2023-11-25, custom)"
   xmlns:inkscape="http://www.inkscape.org/namespaces/inkscape"
   xmlns:sodipodi="http://sodipodi.sourceforge.net/DTD/sodipodi-0.dtd"
   xmlns="http://www.w3.org/2000/svg"
   xmlns:svg="http://www.w3.org/2000/svg"
   xmlns:rdf="http://www.w3.org/1999/02/22-rdf-syntax-ns#"
   xmlns:cc="http://creativecommons.org/ns#"
   xmlns:dc="http://purl.org/dc/elements/1.1/">
  <title
     id="title1243">Downloadable Christmas Tree SVG Files for Cricut and Silhouette</title>
  <defs
     id="defs95" />
  <sodipodi:namedview
     id="namedview93"
     pagecolor="#ffffff"
     bordercolor="#000000"
     borderopacity="0.25"
     inkscape:showpageshadow="2"
     inkscape:pageopacity="0.0"
     inkscape:pagecheckerboard="0"
     inkscape:deskcolor="#d1d1d1"
     showgrid="false"
     inkscape:zoom="1.5090841"
     inkscape:cx="-133.5247"
     inkscape:cy="247.16979"
     inkscape:window-width="3840"
     inkscape:window-height="2123"
     inkscape:window-x="0"
     inkscape:window-y="0"
     inkscape:window-maximized="1"
     inkscape:current-layer="svg91" />
  <g
     id="CIRCLE-2"
     data-name="CIRCLE"
     transform="translate(-462.51346,-22.695519)">
    <g
       id="g47">
      <path
         d="m 556.96,42.66 c -0.58,0.1 -1.19,0.17 -1.81,0.21 l -2.47,-0.11 c -0.31,-0.05 -0.62,-0.11 -0.93,-0.19 -1.28,-0.34 -2.47,-0.98 -3.46,-1.82 -1.7,-1.45 -2.81,-3.48 -3.33,-5.68 -0.61,-2.61 -0.39,-5.45 0.81,-7.82 0.91,-1.81 2.41,-3.34 4.33,-4.08 1.32,-0.52 2.84,-0.66 4.09,-0.18 1.66,0.65 2.85,2.4 3.5,4.19 0.84,2.35 0.78,4.77 0.37,7.13 -0.41,2.41 -1.16,4.75 -2.16,6.98 1.21,0.08 2.44,-0.14 3.58,-0.47 0.53,-0.16 1.04,-0.34 1.58,-0.54 0.3,-0.09 0.58,0.05 0.69,0.34 0.11,0.29 -0.01,0.58 -0.3,0.71 -1.46,0.58 -2.88,1.06 -4.49,1.33 z m -1.59,-7.62 c 0.35,-2.42 0.45,-5.01 -0.7,-7.07 -0.54,-0.96 -1.36,-1.81 -2.22,-1.88 -0.98,-0.08 -2.03,0.84 -2.68,1.98 -1.12,1.94 -1.08,4.52 -0.6,6.69 0.29,1.29 0.73,2.43 1.44,3.44 0.79,1.11 1.92,2.05 3.17,2.58 0.81,-1.75 1.29,-3.68 1.59,-5.74 z"
         style="fill:#005800;stroke-width:0px"
         id="path5" />
      <path
         d="m 538.76,52.37 c 0.67,1.14 2.86,0.52 4.53,-0.23 0.75,-0.33 1.39,-0.69 1.94,-1.06 -0.62,-0.31 -1.29,-0.57 -2.02,-0.79 -1.07,-0.33 -2.27,-0.58 -3.51,-0.1 -0.33,0.12 -0.66,0.3 -0.86,0.55 -0.38,0.47 -0.35,1.19 -0.08,1.63 z m 0.85,2.78 c -1.48,-0.03 -3.07,-0.3 -3.82,-1.34 -0.69,-0.95 -0.67,-2.54 -0.09,-3.69 0.51,-0.99 1.44,-1.64 2.45,-2.06 1.62,-0.68 3.42,-0.78 5.1,-0.43 1.46,0.3 2.82,0.93 4.12,1.67 0.58,-0.59 1.1,-1.2 1.64,-1.83 1.26,-1.47 2.59,-3.01 3.67,-4.71 l 2.47,0.11 c -1.04,2.04 -2.28,3.98 -3.75,5.8 -0.56,0.7 -1.15,1.38 -1.77,2.02 1.21,0.79 2.37,1.66 3.53,2.55 l 1.11,0.87 c 1.01,-0.78 2.05,-1.52 3.14,-2.2 1.7,-1.07 3.51,-1.98 5.56,-2.1 1.66,-0.11 3.48,0.3 4.68,1.45 0.98,0.94 1.55,2.39 1.6,3.79 0.06,1.75 -0.7,3.43 -1.96,4.53 -1.74,1.52 -4.45,1.92 -6.74,1.47 -1.79,-0.35 -3.34,-1.23 -4.84,-2.2 -0.32,-0.21 -0.64,-0.43 -0.96,-0.65 -1.71,1.39 -3.44,2.95 -5.08,4.49 l -2.09,1.98 c -1.91,1.8 -3.8,3.49 -6.42,4.67 -3.15,1.42 -7.34,2.1 -9.66,0.28 -1.11,-0.87 -1.8,-2.32 -1.78,-3.84 0.03,-1.72 0.96,-3.55 2.37,-4.7 1.34,-1.08 3.11,-1.56 4.82,-1.78 2.46,-0.32 4.8,-0.11 7.04,0.6 0.84,0.26 1.66,0.59 2.47,0.98 1.24,-1.04 2.39,-2.09 3.55,-3.13 0.63,-0.56 1.26,-1.12 1.89,-1.66 -0.77,-0.61 -1.55,-1.24 -2.3,-1.87 -0.68,-0.57 -1.35,-1.14 -2.02,-1.66 -0.6,0.46 -1.23,0.86 -1.88,1.21 -1.79,0.95 -3.79,1.44 -6.05,1.38 z m 1.54,7.05 c -2.19,-0.42 -4.38,-0.57 -6.29,0.45 -0.79,0.42 -1.53,1.04 -1.83,1.79 -0.38,0.97 -0.03,2.16 0.77,2.63 1.37,0.8 4.05,-0.46 6.29,-1.75 1.41,-0.81 2.65,-1.62 3.77,-2.44 -0.88,-0.28 -1.8,-0.51 -2.71,-0.68 z m 23.1,-4.42 c 0.98,-0.45 1.9,-1.36 1.89,-2.37 -0.01,-0.82 -0.63,-1.71 -1.37,-2.1 -1.34,-0.73 -3.04,0.18 -4.5,1.04 -1.11,0.65 -2.09,1.29 -3,1.93 0.95,0.59 1.95,1.1 3.03,1.45 1.28,0.42 2.67,0.63 3.95,0.05 z"
         style="fill:#005800;stroke-width:0px"
         id="path7" />
      <path
         d="m 526.61,82.63 c -1.19,0.86 -2.21,2.08 -2.22,3.39 -0.01,1.16 0.77,2.39 1.77,2.93 1.52,0.82 3.56,0.07 5.36,-0.74 3,-1.36 5.36,-2.9 7.74,-4.57 0.72,-0.51 1.45,-1.03 2.15,-1.54 -0.04,-0.01 -0.11,-0.04 -0.18,-0.06 -2.54,-0.92 -5.31,-1.41 -8.13,-1.32 -2.28,0.08 -4.59,0.53 -6.49,1.91 z m 51.78,-12.36 c 0.39,2.39 -0.91,4.91 -2.82,6.57 -2.09,1.81 -4.9,2.61 -7.54,2.4 -2.76,-0.23 -5.32,-1.57 -7.56,-3.15 -0.55,-0.4 -1.09,-0.81 -1.61,-1.23 -1.6,1.35 -3.17,2.75 -4.79,4.05 -1.77,1.42 -3.58,2.73 -5.42,3.99 0.25,0.14 0.51,0.29 0.78,0.44 0.71,0.41 1.41,0.81 2.12,1.22 l -1.56,2.24 c -0.64,-0.42 -1.28,-0.83 -1.92,-1.24 -0.59,-0.38 -1.18,-0.74 -1.78,-1.09 -1.94,1.28 -3.91,2.55 -5.89,3.88 -3.34,2.23 -6.7,4.65 -10.79,4.79 -2.68,0.09 -5.67,-0.8 -7.17,-2.89 -0.88,-1.2 -1.26,-2.81 -1.09,-4.33 0.2,-1.78 1.14,-3.43 2.44,-4.72 1.95,-1.93 4.69,-3.01 7.39,-3.4 3.4,-0.49 6.74,0.11 9.86,1.27 0.96,0.37 1.91,0.78 2.84,1.24 2.11,-1.55 4.24,-3.11 6.4,-4.59 1.81,-1.25 3.64,-2.44 5.37,-3.74 -0.95,-0.93 -1.92,-1.91 -2.9,-2.88 -1.61,-1.6 -3.29,-3.2 -5.17,-4.43 l 2.09,-1.98 c 0.16,0.1 0.34,0.21 0.51,0.33 1.7,1.1 3.3,2.29 4.76,3.63 1.14,1.04 2.19,2.17 3.26,3.29 1.26,-1.07 2.53,-2.14 3.98,-3 2.86,-1.71 6.42,-2.59 9.69,-2.17 1.75,0.22 3.41,0.82 4.67,2.05 0.93,0.91 1.64,2.16 1.85,3.45 z M 575.66,71 c -0.19,-0.79 -0.89,-1.51 -1.75,-1.94 -1.21,-0.62 -2.74,-0.65 -4.12,-0.46 -2.4,0.34 -4.33,1.35 -6.15,2.56 -0.82,0.55 -1.61,1.13 -2.39,1.74 0.55,0.46 1.12,0.91 1.74,1.33 1.64,1.12 3.54,2.02 5.5,2.16 1.64,0.12 3.32,-0.28 4.8,-1.33 1.45,-1.02 2.71,-2.66 2.37,-4.06 z"
         style="fill:#005800;stroke-width:0px"
         id="path9" />
      <path
         d="m 517.88,102.62 c 3.84,-1.32 7.98,-1.54 11.99,-0.98 2.22,0.31 4.4,0.87 6.46,1.68 1.71,0.67 3.34,1.51 4.92,2.45 2.19,-1.65 4.31,-3.37 6.44,-5.05 2.7,-2.13 5.4,-4.17 8.07,-6.31 0.65,-0.52 1.3,-1.05 1.94,-1.57 -0.78,-0.7 -1.58,-1.41 -2.4,-2.1 -1.7,-1.41 -3.49,-2.71 -5.31,-3.94 l 1.56,-2.24 c 2.11,1.22 4.2,2.47 6.17,3.85 0.98,0.69 1.93,1.42 2.88,2.16 0.98,-0.74 1.98,-1.45 3.02,-2.11 2.99,-1.91 6.27,-3.39 9.77,-4.23 3.07,-0.73 6.3,-0.96 9.33,0.05 2.03,0.68 3.98,1.91 5.04,3.74 1.22,2.09 1.29,4.96 0.34,7.26 -1.15,2.76 -3.75,4.72 -6.55,5.83 -3,1.18 -6.22,1.4 -9.26,0.77 -3.31,-0.69 -6.4,-2.37 -9.14,-4.41 -0.53,-0.39 -1.05,-0.8 -1.56,-1.22 -0.94,0.76 -1.88,1.54 -2.81,2.31 -3.43,2.83 -6.84,5.63 -10.36,8.38 -0.83,0.65 -1.66,1.3 -2.47,1.91 0.72,0.5 1.46,1.02 2.2,1.54 0.82,0.57 1.64,1.13 2.46,1.69 l -1.58,2.44 c -1.87,-1.26 -3.75,-2.52 -5.65,-3.74 -3.23,2.37 -6.53,4.61 -9.91,6.55 -3.91,2.24 -7.92,4.08 -12.58,5.55 -3.77,1.18 -7.97,2.13 -11.11,0.28 -1.52,-0.9 -2.79,-2.45 -3.39,-4.17 -0.66,-1.92 -0.49,-4.05 0.15,-5.99 0.87,-2.61 2.6,-4.88 4.7,-6.66 1.95,-1.66 4.24,-2.9 6.64,-3.72 z m 15.56,2.72 c -4.22,-1.47 -9.17,-1.51 -13.41,-0.13 -2.8,0.91 -5.29,2.44 -7.42,4.68 -1.1,1.16 -2.11,2.5 -2.63,4 -0.48,1.36 -0.55,2.84 0.12,3.75 0.93,1.24 3.26,1.38 5.35,1.21 3.82,-0.32 6.8,-1.67 9.79,-3.19 4.5,-2.28 9,-4.91 13.25,-7.88 -1.61,-0.94 -3.27,-1.82 -5.05,-2.44 z m 50.28,-9 c 1.32,-1.58 2,-4.05 1.18,-5.67 -0.74,-1.47 -2.7,-2.25 -4.54,-2.55 -2.04,-0.33 -3.94,-0.06 -5.76,0.47 -2.58,0.75 -5.02,2.01 -7.31,3.48 -0.91,0.58 -1.79,1.19 -2.63,1.81 0.38,0.31 0.77,0.62 1.16,0.94 1.82,1.45 3.72,2.89 5.84,3.64 1.91,0.67 4.01,0.78 6.14,0.53 2.2,-0.26 4.45,-0.9 5.92,-2.65 z"
         style="fill:#005800;stroke-width:0px"
         id="path11" />
      <path
         d="m 567.57,128.4 c 0.54,1.15 0.48,2.7 -0.05,3.92 -0.64,1.49 -1.99,2.48 -3.49,3.12 -2.18,0.93 -4.69,1.11 -6.8,0.2 -1.82,-0.78 -3.36,-2.36 -4.01,-4.19 -0.7,-1.97 -0.38,-4.22 0.28,-6.26 0.68,-2.1 1.72,-3.98 2.96,-5.68 -0.57,-0.37 -1.19,-0.78 -1.8,-1.19 -1.88,-1.26 -3.76,-2.53 -5.63,-3.8 l 1.58,-2.44 c 2.46,1.67 4.94,3.29 7.45,4.87 0.11,0.06 0.21,0.13 0.31,0.19 1.01,-1.13 2.12,-2.19 3.33,-3.12 3.65,-2.82 8.21,-4.51 12.72,-5.4 4.09,-0.82 8.13,-0.97 12.43,-0.11 3.34,0.67 6.83,1.95 8.61,4.68 0.96,1.48 1.42,3.38 1.2,5.13 -0.34,2.71 -2.32,5.04 -4.61,6.68 -2.97,2.11 -6.45,3.05 -9.97,3.27 -4.85,0.31 -9.76,-0.77 -14.27,-2.58 -2.9,-1.17 -5.64,-2.65 -8.3,-4.26 -0.13,0.17 -0.25,0.35 -0.37,0.52 -0.95,1.37 -1.76,2.86 -1.69,4.6 0.06,1.54 0.81,3.28 2.02,4.03 0.64,0.39 1.41,0.51 2.15,0.51 1.35,0 2.63,-0.4 3.72,-1.19 0.78,-0.57 1.46,-1.34 1.5,-2.72 0.25,0.41 0.53,0.78 0.73,1.22 z m 22.81,-7.86 c 0.79,-1.34 1.14,-3.07 0.65,-4.42 -0.56,-1.54 -2.21,-2.59 -3.87,-3.31 -2.97,-1.29 -5.99,-1.53 -9.02,-1.39 -2.69,0.14 -5.38,0.57 -7.9,1.56 -2.41,0.95 -4.67,2.39 -6.67,4.1 -0.75,0.64 -1.47,1.32 -2.07,1.97 1.76,1.04 3.65,2.05 5.62,2.9 3.28,1.42 6.76,2.38 10.34,2.76 2.7,0.29 5.44,0.25 8.04,-0.61 1.95,-0.65 3.82,-1.75 4.88,-3.56 z"
         style="fill:#005800;stroke-width:0px"
         id="path13" />
      <path
         d="m 505.82,132 c 0.85,-0.39 1.72,-0.74 2.62,-1.01 l 0.56,2.04 c -1.63,0.45 -3.11,1.21 -4.44,2.17 -1.84,1.32 -3.38,3 -4.73,4.96 -1.49,2.16 -2.75,4.67 -2.58,7.18 0.08,1.22 0.5,2.45 1.38,3.22 0.92,0.81 2.33,1.12 3.72,1.02 1.32,-0.1 2.61,-0.58 3.63,-1.42 0.92,-0.75 1.61,-1.78 1.86,-3.11 0.3,-1.66 -0.1,-3.8 -1.41,-4.29 -0.69,-0.27 -1.63,-0.07 -2.24,0.38 -0.5,0.37 -0.78,0.9 -1.06,1.43 -0.14,-0.16 -0.28,-0.33 -0.38,-0.52 -0.09,-0.18 -0.16,-0.38 -0.2,-0.58 -0.19,-0.92 0.1,-1.86 0.66,-2.64 0.71,-0.99 1.86,-1.73 3.09,-2.04 1.19,-0.3 2.45,-0.2 3.49,0.31 1.17,0.56 2.07,1.65 2.53,2.89 0.63,1.68 0.46,3.66 -0.06,5.43 -0.6,2.05 -1.68,3.82 -3.23,5.12 -1.65,1.4 -3.85,2.27 -6.13,2.37 -1.8,0.09 -3.65,-0.3 -5.03,-1.31 -1.43,-1.04 -2.35,-2.75 -2.79,-4.51 -0.46,-1.87 -0.36,-3.81 0.12,-5.6 0.59,-2.15 1.76,-4.11 3.2,-5.82 2.01,-2.39 4.57,-4.32 7.42,-5.67 z"
         style="fill:#005800;stroke-width:0px"
         id="path15" />
      <path
         d="m 512.06,132.57 c -1.06,0.02 -2.09,0.19 -3.06,0.46 l -0.56,-2.04 c 1.66,-0.5 3.38,-0.75 5.12,-0.58 2.26,0.22 4.55,1.13 6.04,2.75 1.6,1.74 2.29,4.29 2.35,6.7 0.04,1.47 -0.15,2.88 -0.35,4.3 0.37,-0.89 0.76,-1.75 1.17,-2.6 l 2.2,1.04 c -0.86,1.87 -1.51,3.82 -2.25,5.81 -1.15,3.12 -2.49,6.37 -4.32,8.78 -0.6,0.8 -1.26,1.51 -2.28,2.08 -0.34,0.19 -0.72,0.37 -1.15,0.53 -1.14,0.43 -2.66,0.74 -2.85,0.16 -0.12,-0.36 0.28,-1.07 0.65,-1.67 0.55,-0.87 1.03,-1.49 1.45,-2.19 1.32,-2.2 1.98,-5.14 2.67,-7.87 0.74,-2.91 1.51,-5.59 1.61,-8.73 0.07,-1.92 -0.12,-4.01 -1.25,-5.27 -1.14,-1.27 -3.24,-1.7 -5.19,-1.66 z"
         style="fill:#005800;stroke-width:0px"
         id="path17" />
      <path
         d="m 522.77,141.56 c 0.41,-0.84 0.82,-1.67 1.23,-2.5 1.12,-2.24 2.2,-4.49 4.27,-6.56 1.53,-1.53 3.59,-2.97 5.29,-2.31 0.72,0.28 1.36,0.92 1.76,1.63 0.82,1.44 0.61,3.16 0.2,4.77 -0.49,1.96 -1.27,3.75 -1.61,5.67 -0.18,1.02 -0.24,2.07 -0.3,3.13 0.45,-0.92 0.91,-1.83 1.4,-2.77 0.95,-1.8 2.07,-3.7 3.15,-5.39 l 2.1,0.59 c -0.96,1.44 -1.62,2.67 -2.33,4.03 -1.57,3.03 -3.32,6.72 -4.94,9.68 -1.09,2 -2.12,3.66 -4.41,5.95 -1.47,1.48 -3.46,3.22 -3.96,2.4 -0.25,-0.4 -0.13,-1.44 0.03,-2.35 0.28,-1.57 0.68,-2.72 1.19,-3.96 0.93,-2.28 2.22,-4.85 2.97,-7 0.7,-1.99 0.95,-3.62 1.97,-6.76 0.95,-2.97 2.6,-7.29 1.19,-6.54 -0.27,0.14 -0.64,0.46 -0.99,0.78 -1.15,1.06 -1.96,2.07 -2.76,3.17 -1.03,1.41 -2.04,2.97 -2.86,4.58 -0.13,0.26 -0.26,0.53 -0.39,0.8 z"
         style="fill:#005800;stroke-width:0px"
         id="path19" />
      <path
         d="m 538.62,136.52 c 1.09,-1.67 2.12,-3.07 3.47,-4.47 1.11,-1.14 2.43,-2.28 4.2,-2.45 0.77,-0.08 1.64,0.03 2.08,0.49 0.54,0.55 0.48,1.61 0.33,2.59 -0.35,2.4 -1.18,4.33 -1.93,6.13 -1.17,2.84 -2.15,5.36 -3.64,9.25 -1.08,2.81 -2.43,6.34 -0.28,7.21 0.31,0.12 0.7,0.19 1.03,0.15 0.74,-0.09 1.24,-0.72 1.76,-1.37 l 1.52,0.28 c -0.14,0.14 -0.27,0.29 -0.4,0.44 -1.3,1.44 -2.35,3.05 -4.08,3.95 -0.85,0.44 -1.85,0.71 -2.71,0.46 -0.94,-0.27 -1.72,-1.15 -2.17,-2.08 -0.75,-1.55 -0.61,-3.24 -0.29,-4.92 0.35,-1.81 0.9,-3.6 1.37,-5.17 0.69,-2.27 1.23,-4.09 2.57,-7.27 1.17,-2.78 2.96,-6.6 2.29,-6.31 -0.38,0.17 -1.51,1.61 -2.42,2.86 -0.4,0.54 -0.75,1.05 -1.06,1.53 l -2.1,-0.59 c 0.15,-0.24 0.31,-0.48 0.46,-0.71 z"
         style="fill:#005800;stroke-width:0px"
         id="path21" />
      <path
         d="m 550.98,150.65 c 1.57,-0.6 3.13,-1.21 4.58,-2.07 1.16,-0.69 2.25,-1.54 2.68,-3.02 0.24,-0.81 0.28,-1.82 -0.11,-2.29 -0.39,-0.46 -1.19,-0.41 -1.93,-0.14 -1.18,0.44 -2.19,1.41 -2.97,2.43 -0.79,1.03 -1.34,2.11 -1.74,3.19 -0.22,0.62 -0.4,1.24 -0.51,1.9 z m -5.34,3.4 c 0.17,-0.22 0.34,-0.44 0.52,-0.64 0.44,-0.5 0.92,-0.9 1.44,-1.23 0.1,-1.64 0.3,-3.18 0.71,-4.53 0.53,-1.72 1.39,-3.13 2.6,-4.33 1.71,-1.72 4.11,-3.01 6.8,-3 1.27,0 2.61,0.29 3.44,1.15 0.84,0.88 1.16,2.33 0.91,3.54 -0.01,0.09 -0.04,0.18 -0.06,0.27 -0.26,0.94 -0.88,1.71 -1.6,2.42 -1.46,1.45 -3.32,2.68 -5.23,3.17 -1.34,0.34 -2.71,0.32 -3.96,0.71 -0.12,0.03 -0.24,0.07 -0.35,0.11 -0.02,0.26 -0.03,0.52 -0.03,0.8 0,0.94 0.1,2.01 0.72,2.4 0.35,0.21 0.86,0.21 1.34,0.18 1.16,-0.08 2.11,-0.38 3.05,-0.82 1.29,-0.6 2.54,-1.47 3.71,-2.36 l 1.1,1.48 c -0.8,0.62 -1.62,1.21 -2.48,1.77 -2.15,1.4 -4.55,2.58 -7.1,2.4 -1.2,-0.08 -2.44,-0.46 -3.05,-1.42 -0.38,-0.58 -0.52,-1.37 -0.55,-2.2 l -0.41,0.41 z"
         style="fill:#005800;stroke-width:0px"
         id="path23" />
      <path
         d="m 571.74,152.42 c -1.13,1.23 -2.28,2.23 -4.14,3.13 -1.7,0.83 -3.99,1.57 -4.73,0.5 -0.36,-0.52 -0.35,-1.5 -0.21,-2.34 0.16,-0.93 0.47,-1.71 0.78,-2.49 -0.89,0.73 -1.77,1.45 -2.69,2.15 l -1.1,-1.48 c 0.39,-0.29 0.78,-0.59 1.15,-0.88 1.19,-0.93 2.29,-1.77 3.33,-3.29 0.67,-0.97 1.31,-2.23 0.62,-2.95 -0.21,-0.21 -0.53,-0.38 -0.82,-0.37 -0.39,0.01 -0.71,0.35 -1.03,0.69 0.08,-0.35 0.17,-0.7 0.21,-1.05 0.11,-0.86 0,-1.75 -0.11,-2.63 1.12,-0.02 2.24,-0.04 3.52,0.13 0.64,0.09 1.32,0.22 1.76,-0.11 0.32,-0.23 0.51,-0.7 0.81,-0.95 0.52,-0.45 1.35,-0.26 2.17,-0.08 -0.1,0.53 -0.2,1.05 -0.43,1.51 -0.24,0.47 -0.63,0.87 -0.97,1.3 -0.75,0.96 -1.28,2.11 -1.64,3.14 -0.46,1.33 -0.62,2.44 -0.96,4.46 -0.21,1.22 -0.48,2.78 0.03,2.78 0.27,0 0.74,-0.43 1.18,-0.82 1.38,-1.27 2.35,-2.29 3.2,-3.27 0.76,-0.88 1.43,-1.73 2.52,-3.17 0.65,-0.87 1.46,-1.95 1.05,-2.27 -0.24,-0.2 -0.93,-0.12 -1.49,-0.13 -0.56,-0.02 -1,-0.13 -1.45,-0.23 0.34,-0.41 0.68,-0.82 0.87,-1.29 0.21,-0.52 0.22,-1.11 0.24,-1.7 1.3,0.05 2.59,0.1 3.97,0.2 0.66,0.04 1.35,0.1 1.91,-0.18 0.41,-0.21 0.75,-0.61 1.17,-0.8 0.49,-0.22 1.07,-0.16 1.65,-0.1 -0.6,0.66 -1.2,1.33 -1.71,2.06 -0.69,0.99 -1.23,2.12 -1.73,3.17 -0.62,1.3 -1.16,2.47 -1.66,4.15 -0.33,1.07 -0.63,2.36 0.09,2.98 0.15,0.13 0.35,0.23 0.56,0.28 0.58,0.12 1.17,-0.23 1.68,-0.61 0.87,-0.64 1.49,-1.35 2.12,-2.12 l 1.78,0.17 c -0.58,0.86 -1.17,1.71 -1.84,2.51 -1.11,1.33 -2.44,2.47 -4.26,3.01 -1.26,0.37 -2.76,0.45 -3.6,-0.34 -0.55,-0.51 -0.81,-1.4 -0.79,-2.21 0.02,-0.95 0.42,-1.8 0.83,-2.64 -0.61,0.75 -1.22,1.5 -1.84,2.18 z"
         style="fill:#005800;stroke-width:0px"
         id="path25" />
      <path
         d="m 608.69,158.13 c -2.69,0.89 -5.69,0.86 -8.41,0.13 -1.98,-0.53 -3.81,-1.44 -5.74,-2.08 l 0.6,-1.83 c 0.63,0.21 1.26,0.44 1.89,0.65 2.19,0.74 4.43,1.39 6.73,1.43 1.93,0.03 3.91,-0.37 5.63,-1.3 1.65,-0.89 3.06,-2.26 4.03,-3.85 0.96,-1.56 1.5,-3.32 1.59,-5.23 0.09,-1.84 -0.24,-3.81 -1.45,-5.16 -0.86,-0.96 -2.17,-1.61 -3.44,-1.63 -1.56,-0.03 -3.06,0.89 -4.06,2.26 -1.11,1.5 -1.61,3.54 -0.77,5.06 0.43,0.77 1.21,1.42 2.03,1.63 0.93,0.24 1.91,-0.06 2.89,-0.35 -0.6,0.99 -1.2,1.98 -2.13,2.63 -1,0.69 -2.38,1 -3.55,0.69 -1.32,-0.35 -2.37,-1.47 -2.99,-2.72 -0.63,-1.29 -0.8,-2.71 -0.64,-4.1 0.18,-1.63 0.82,-3.21 1.86,-4.5 1.46,-1.82 3.7,-3.06 6.05,-3.26 2.17,-0.18 4.43,0.53 6.06,1.94 1.51,1.29 2.48,3.19 2.83,5.14 0.34,1.94 0.07,3.94 -0.56,5.81 -0.65,1.94 -1.68,3.74 -3.08,5.21 -1.46,1.56 -3.33,2.76 -5.37,3.43 z"
         style="fill:#005800;stroke-width:0px"
         id="path27" />
      <path
         d="m 581.06,157.29 c -1.21,0.85 -2.3,2.04 -2.56,3.46 -0.1,0.53 -0.08,1.08 0.16,1.43 0.55,0.76 2.23,0.49 3.5,0.06 1.11,-0.39 1.9,-0.9 2.65,-1.51 1.17,-0.96 2.23,-2.15 3.17,-3.51 0.45,-0.65 0.88,-1.33 1.24,-2.03 -1.45,-0.04 -2.94,0.13 -4.36,0.47 -1.35,0.33 -2.63,0.82 -3.8,1.63 z m -5.38,3.86 c 0.16,-1.09 0.6,-2.04 1.2,-2.88 0.97,-1.36 2.36,-2.43 3.86,-3.2 1.76,-0.91 3.69,-1.43 5.64,-1.67 1.22,-0.15 2.44,-0.2 3.66,-0.12 0.13,-0.41 0.24,-0.82 0.32,-1.23 0.12,-0.67 0.17,-1.35 0.22,-2.03 -0.25,0.25 -0.5,0.49 -0.76,0.72 -0.99,0.87 -2.15,1.49 -3.61,1.72 -0.89,0.14 -1.9,0.14 -2.4,-0.34 -0.48,-0.45 -0.52,-1.33 -0.57,-2.21 l -1.78,-0.17 c 0.68,-0.82 1.36,-1.71 1.92,-2.69 0.57,-1.02 1,-2.14 1.34,-3.22 0.45,-1.43 0.74,-2.78 1.3,-4.13 0.42,-1.03 0.99,-2.05 2.11,-2.57 0.69,-0.32 1.59,-0.44 2.01,-0.06 0.33,0.3 0.36,0.91 0.29,1.48 -0.18,1.49 -1.05,2.73 -1.74,3.87 -0.76,1.25 -1.31,2.38 -1.89,4.28 -0.31,1.03 -0.63,2.28 0.04,2.62 0.23,0.11 0.57,0.12 0.88,0.09 0.63,-0.07 1.15,-0.31 1.63,-0.62 1.06,-0.68 1.94,-1.68 2.57,-2.76 0.52,-0.89 0.88,-1.84 1.24,-2.83 0.64,-1.76 1.28,-3.65 2.39,-5.19 0.87,-1.21 2.02,-2.2 3.32,-2.36 0.68,-0.08 1.4,0.06 2.25,0.42 -0.28,0.36 -0.56,0.72 -0.83,1.1 -2.08,2.95 -3.07,6.56 -4.19,10.04 -0.74,2.29 -1.53,4.53 -2.49,6.67 0.51,0.14 1.02,0.3 1.53,0.47 l -0.6,1.83 c -0.59,-0.2 -1.18,-0.38 -1.78,-0.52 -0.65,1.26 -1.37,2.5 -2.2,3.7 -1.42,2.06 -3.14,4.02 -5.25,5.3 -1.32,0.8 -2.79,1.33 -4.42,1.4 -0.36,0.02 -0.72,0.01 -1.08,-0.02 -1.58,-0.12 -3.1,-0.71 -3.77,-1.99 -0.43,-0.82 -0.51,-1.92 -0.36,-2.9 z"
         style="fill:#005800;stroke-width:0px"
         id="path29" />
      <circle
         cx="540.13"
         cy="169.00999"
         r="1.47"
         style="fill:#005800;stroke-width:0px"
         id="circle31" />
      <path
         d="m 485.8,164.57 c 0.67,-0.12 1.37,-0.39 1.71,-0.91 0.51,-0.82 0.16,-2.25 -0.61,-2.92 -0.85,-0.74 -2.21,-0.54 -3.31,-0.08 -1.81,0.78 -2.9,2.29 -3.86,3.89 -0.71,1.19 -1.34,2.43 -1.62,3.75 -0.35,1.62 -0.16,3.35 0.39,4.99 0.16,0.47 0.35,0.94 0.58,1.38 l -2.17,0.57 c -0.69,-1.33 -1.09,-2.82 -1.24,-4.33 -0.19,-2.01 0.04,-4.06 0.72,-5.96 0.94,-2.67 2.75,-5.06 5.18,-6.65 1.85,-1.21 4.07,-1.96 6.26,-1.74 1.23,0.13 2.45,0.56 3.34,1.39 0.94,0.88 1.5,2.2 1.45,3.48 -0.06,1.32 -0.78,2.59 -1.69,3.52 -0.14,0.14 -0.28,0.27 -0.43,0.4 -1.05,0.88 -2.32,1.37 -3.78,1.49 -1.16,0.1 -2.45,-0.03 -3.11,-0.84 -0.31,-0.38 -0.49,-0.91 -0.49,-1.48 0.88,0.11 1.75,0.22 2.68,0.05 z"
         style="fill:#005800;stroke-width:0px"
         id="path33" />
      <path
         d="m 500.24,168.15 c 0.59,-1.09 1.07,-2.37 0.58,-3.44 -0.15,-0.33 -0.39,-0.64 -0.66,-0.84 -1.28,-0.97 -3.23,0.43 -4.78,1.69 -2.07,1.69 -3.41,3.13 -4.76,4.85 -1.4,1.78 -2.81,3.86 -3.65,6.26 -0.14,0.41 -0.27,0.83 -0.38,1.25 1.97,-0.26 3.84,-1.07 5.56,-2.08 1.82,-1.08 3.47,-2.38 4.96,-3.79 1.2,-1.13 2.28,-2.33 3.13,-3.9 z m 3.29,-5.05 c 0.28,1.2 0.13,2.4 -0.24,3.51 -0.52,1.61 -1.48,3.05 -2.55,4.39 -1.63,2.05 -3.5,3.88 -5.58,5.43 -1.73,1.28 -3.61,2.38 -5.7,3.07 -1.06,0.35 -2.17,0.59 -3.29,0.69 -0.23,1.9 -0.14,3.83 0.28,5.56 0.32,1.35 0.84,2.57 1.72,3.49 1.09,1.13 2.73,1.78 4.31,1.81 0.2,0 0.4,0 0.6,-0.02 l 0.4,2.1 c -0.32,0.07 -0.64,0.12 -0.97,0.16 -2.13,0.25 -4.42,-0.12 -6.22,-1.27 -1.53,-0.97 -2.7,-2.51 -3.41,-4.19 -0.95,-2.25 -1.08,-4.76 -0.74,-7.19 0.04,-0.28 0.09,-0.56 0.14,-0.83 -0.09,-0.03 -0.2,-0.07 -0.31,-0.1 -1.68,-0.6 -3.2,-1.75 -4.27,-3.2 -0.3,-0.4 -0.56,-0.83 -0.79,-1.27 l 2.17,-0.57 c 0.38,0.73 0.87,1.39 1.48,1.9 0.64,0.53 1.41,0.9 2.23,1.13 0.71,-2.34 1.82,-4.52 3.13,-6.38 1.1,-1.54 2.33,-2.85 3.76,-4.23 0.42,-0.4 0.85,-0.81 1.3,-1.21 1.79,-1.61 3.87,-3.2 6.37,-4.34 1.89,-0.86 4.01,-1.47 5.2,-0.38 0.49,0.45 0.82,1.19 0.98,1.94 z"
         style="fill:#005800;stroke-width:0px"
         id="path35" />
      <path
         d="m 513.67,172.78 c 0.61,-1.15 1.12,-2.39 1.5,-3.67 0.23,-0.78 0.41,-1.58 0.27,-2.46 -0.06,-0.39 -0.19,-0.8 -0.5,-0.89 -0.14,-0.03 -0.32,0 -0.46,0.08 -0.26,0.15 -0.39,0.46 -0.52,0.75 -0.79,1.81 -1.36,3.09 -1.89,4.64 -0.42,1.23 -0.83,2.64 -1.13,4.03 -0.15,0.73 -0.27,1.46 -0.37,2.11 0.02,-0.02 0.09,-0.11 0.16,-0.2 1.08,-1.37 2.11,-2.8 2.94,-4.39 z m -6.55,17.96 c -1.08,1.37 -2.43,2.87 -3.69,2.4 -0.41,-0.15 -0.81,-0.51 -0.83,-0.89 -0.03,-0.52 0.63,-1.08 0.99,-1.71 0.18,-0.34 0.29,-0.69 0.39,-1.03 0.28,-0.98 0.57,-1.93 0.85,-2.84 -1.4,1.12 -2.86,2.19 -4.39,3.2 -2.15,1.43 -4.44,2.75 -6.96,3.26 l -0.4,-2.1 c 2.44,-0.19 4.72,-1.76 6.85,-3.4 2.25,-1.72 4.33,-3.51 6.26,-5.41 0.13,-0.45 0.25,-0.9 0.38,-1.36 0.57,-2.13 1.05,-4.33 1.67,-6.54 0.65,-2.31 1.46,-4.62 2.44,-6.76 0.85,-1.87 1.83,-3.61 3.28,-4.98 0.71,-0.66 1.51,-1.25 2.34,-1.3 0.15,-0.01 0.29,-0.01 0.44,0.02 0.45,0.08 0.9,0.34 1.22,0.7 0.76,0.86 0.79,2.35 0.62,3.71 -0.23,1.88 -0.86,3.5 -1.6,5.14 -0.89,1.99 -1.95,4 -2.79,5.39 -0.64,1.06 -1.15,1.77 -2.52,4.1 0.18,-0.2 0.36,-0.41 0.54,-0.62 1.03,-1.21 1.94,-2.47 3.07,-3.74 0.77,-0.88 1.65,-1.76 2.79,-1.84 0.8,-0.06 1.74,0.29 2.21,0.83 1.03,1.19 -0.22,3.32 -0.97,5.07 -0.52,1.22 -0.81,2.24 -1.12,3.39 -0.36,1.34 -0.75,2.85 -0.19,4.32 0.16,0.41 0.39,0.82 0.65,0.99 0.74,0.47 1.76,-0.88 2.55,-1.99 1.16,-1.63 1.84,-2.76 2.52,-3.99 0.43,-0.79 0.86,-1.61 1.1,-2.79 0.14,-0.66 0.21,-1.42 -0.21,-1.66 -0.41,-0.22 -1.29,0.05 -1.6,-0.24 -0.24,-0.23 -0.13,-0.8 -0.03,-1.26 0.12,-0.55 0.24,-0.95 0.23,-1.51 0,-0.36 -0.05,-0.78 0.2,-0.97 0.22,-0.17 0.68,-0.18 0.84,0 0.2,0.24 -0.09,0.78 0.01,1.08 0.09,0.3 0.6,0.32 1.03,0.34 1.04,0.04 1.67,0 2.65,-0.01 0.24,0 0.51,0 0.61,-0.15 0.14,-0.21 -0.07,-0.74 -0.03,-1.01 0.05,-0.26 0.35,-0.27 0.69,-0.3 0.46,-0.03 0.99,-0.08 1.19,0.23 0.11,0.18 0.12,0.46 0.15,0.76 0.05,0.51 0.17,1.06 -0.08,1.21 -0.26,0.17 -0.94,-0.09 -1.27,0.1 -0.22,0.13 -0.29,0.44 -0.37,0.75 -0.39,1.42 -0.89,2.54 -1.34,3.64 -0.45,1.11 -0.85,2.2 -1.42,3.61 -0.32,0.78 -0.69,1.65 -0.27,2 0.12,0.11 0.32,0.17 0.52,0.17 0.92,0.04 2,-0.97 2.84,-1.78 1.39,-1.32 2.15,-2.09 2.95,-3.05 0.62,-0.75 1.26,-1.61 2.01,-2.62 0.75,-1.03 1.61,-2.21 2.38,-3.23 0.56,-0.75 1.08,-1.4 1.72,-2.22 0.35,-0.45 0.74,-0.95 1.21,-0.84 0.23,0.06 0.48,0.27 0.61,0.51 0.32,0.6 -0.14,1.41 -0.49,2.08 -0.52,0.98 -0.79,1.65 -1.11,2.43 -0.4,0.99 -0.88,2.15 -1.26,3.22 -0.3,0.85 -0.52,1.64 -0.75,2.75 -0.12,0.6 -0.24,1.3 -0.11,1.58 0.21,0.48 1.15,-0.28 1.97,-1.01 1.82,-1.65 3.07,-3.2 4.36,-4.7 0.44,-0.52 0.89,-1.03 1.37,-1.53 l 1.06,0.87 c -0.4,0.49 -0.81,0.97 -1.21,1.47 -1.28,1.57 -2.53,3.14 -3.97,4.66 -1.1,1.15 -2.3,2.28 -3.99,2.47 -0.78,0.09 -1.67,-0.03 -2.12,-0.53 -0.38,-0.43 -0.44,-1.15 -0.43,-1.81 0.01,-0.84 0.15,-1.6 0.29,-2.36 -1.37,1.17 -2.75,2.33 -3.98,3.53 -1.26,1.24 -2.38,2.51 -4.48,3.09 -1.08,0.3 -2.43,0.41 -2.8,-0.29 -0.16,-0.3 -0.13,-0.76 -0.1,-1.22 -0.77,0.75 -1.53,1.51 -2.45,2.25 -1.08,0.86 -2.38,1.7 -3.63,1.48 -0.8,-0.13 -1.58,-0.71 -2.1,-1.41 -0.61,-0.83 -0.84,-1.83 -0.91,-2.86 -0.09,-1.21 0.04,-2.45 0.32,-3.52 0.35,-1.36 0.93,-2.43 2.27,-3.89 0.72,-0.79 1.67,-1.69 1.37,-2.18 -0.11,-0.19 -0.41,-0.32 -0.69,-0.31 -0.67,0.02 -1.24,0.85 -1.76,1.61 -1.21,1.77 -2.18,3.14 -3.05,4.51 -1.37,2.14 -2.49,4.26 -4.54,6.83 z"
         style="fill:#005800;stroke-width:0px"
         id="path37" />
      <path
         d="m 566.34,170.84 c -0.16,0.2 -0.51,0.34 -0.87,0.44 -0.88,0.25 -1.79,0.3 -2.65,0.38 -0.26,1.28 -0.46,2.54 -0.6,3.66 -0.17,1.47 -0.25,2.69 -0.58,4.9 -0.15,1.07 -0.37,2.38 -0.03,2.39 0.25,0.01 0.8,-0.66 1.27,-1.19 0.67,-0.75 1.21,-1.2 1.76,-1.71 0.91,-0.84 1.88,-1.85 2.82,-2.84 l 1.45,0.61 c -1.17,1.16 -2.31,2.35 -3.33,3.72 -1.13,1.52 -2.1,3.27 -3.78,4.03 -0.87,0.39 -1.93,0.51 -2.86,0.15 -0.29,-0.11 -0.58,-0.28 -0.77,-0.49 -0.62,-0.68 -0.33,-1.85 -0.16,-2.92 0.09,-0.53 0.15,-1.04 0.19,-1.53 -0.73,0.92 -1.46,1.85 -2.39,2.47 -0.86,0.57 -1.9,0.88 -2.93,1.19 -0.27,0.67 -0.66,1.28 -1.12,1.78 -0.67,0.73 -1.5,1.21 -2.58,1.51 -1.08,0.29 -2.4,0.39 -3.57,0.41 -0.89,0.02 -1.69,-0.02 -2.41,-0.34 -0.57,-0.27 -1.08,-0.72 -1.18,-1.27 -0.13,-0.76 0.52,-1.72 1.24,-2.3 0.69,-0.57 1.45,-0.79 2.21,-1.01 -0.32,0.58 -0.64,1.15 -0.55,1.74 0.07,0.51 0.44,1.02 0.91,1.28 0.92,0.5 2.21,0.05 2.94,-0.75 0.53,-0.57 0.76,-1.32 0.72,-2.05 -0.05,-1.11 -0.72,-2.19 -1.58,-2.88 -0.62,-0.51 -1.34,-0.8 -2.04,-1.13 -0.17,-0.07 -0.33,-0.15 -0.49,-0.24 -0.1,0.12 -0.2,0.25 -0.3,0.37 l -1.06,-0.87 c 0.16,-0.17 0.32,-0.33 0.49,-0.5 -0.25,-0.59 -0.34,-1.33 -0.33,-1.96 0.01,-0.93 0.21,-1.64 0.66,-2.32 0.62,-0.93 1.69,-1.8 2.81,-2.33 0.89,-0.43 1.8,-0.64 2.81,-0.75 1.06,-0.12 2.23,-0.12 3.09,0.51 0.48,0.35 0.87,0.9 0.93,1.47 0.05,0.56 -0.21,1.15 -0.56,1.59 -0.43,0.55 -0.99,0.89 -1.79,1.06 -0.19,0.04 -0.4,0.08 -0.5,0.03 -0.25,-0.11 0.14,-0.7 0.25,-1.2 0.1,-0.46 -0.05,-0.85 -0.31,-1.09 -0.45,-0.41 -1.25,-0.35 -1.95,-0.14 -0.7,0.22 -1.3,0.59 -1.59,1.17 -0.26,0.53 -0.27,1.22 -0.06,1.76 0.39,1 1.53,1.48 2.55,2 0.71,0.37 1.37,0.75 1.84,1.31 0.33,0.39 0.57,0.88 0.73,1.39 0.12,0.36 0.19,0.74 0.23,1.13 0.9,-0.39 1.81,-0.78 2.58,-1.34 0.93,-0.69 1.66,-1.63 2.39,-2.57 v -0.75 c -0.01,-1.5 0,-3.07 0.31,-4.59 -0.29,0.03 -0.61,0.07 -0.96,0.13 -0.63,0.1 -1.38,0.28 -1.73,0.06 -0.22,-0.14 -0.28,-0.43 -0.19,-0.66 0.27,-0.73 2.04,-0.74 3.21,-0.8 0.32,-1.02 0.75,-2 1.24,-2.92 0.75,-1.42 1.62,-2.7 3.33,-3.6 0.91,-0.49 2.07,-0.87 2.62,-0.25 0.24,0.28 0.37,0.76 0.31,1.14 -0.14,0.81 -1.1,1.19 -1.76,1.76 -0.93,0.8 -1.26,1.96 -1.54,3.14 -0.02,0.08 -0.04,0.15 -0.06,0.23 0.26,-0.05 0.52,-0.1 0.8,-0.16 0.94,-0.2 2.05,-0.48 2.44,-0.12 0.17,0.16 0.2,0.45 0.03,0.66 z"
         style="fill:#005800;stroke-width:0px"
         id="path39" />
      <path
         d="m 572.96,173.92 c 0.16,0.06 1.07,-1.49 1.79,-2.5 0.48,-0.66 0.88,-1.09 1.39,-1.47 0.48,-0.36 1.06,-0.68 1.69,-0.89 0.56,-0.19 1.16,-0.29 1.73,-0.23 0.34,0.03 0.67,0.13 0.98,0.29 0.38,0.19 0.73,0.49 0.9,0.81 0.31,0.61 -0.02,1.32 -0.37,2.24 -0.38,1.02 -0.77,2.29 -0.65,2.41 q 0,0 0.02,0 l 1.49,0.98 c -0.96,1.3 -1.51,2.17 -2.15,3.2 -0.6,0.98 -1.28,2.11 -1.75,3.26 -0.3,0.71 -0.52,1.43 -1.19,1.88 -0.38,0.27 -0.92,0.44 -1.29,0.31 -0.51,-0.18 -0.7,-0.95 -0.76,-1.64 -0.09,-1.14 0.19,-2.05 0.54,-2.94 0.48,-1.23 1.11,-2.41 1.75,-3.82 0.39,-0.84 0.78,-1.76 0.81,-2.82 0,-0.52 -0.07,-1.08 -0.24,-1.33 -0.52,-0.8 -1.9,1.31 -2.91,2.8 -1.13,1.69 -1.8,2.59 -2.58,3.75 -0.85,1.26 -1.82,2.81 -2.72,4.13 -0.37,0.55 -0.73,1.06 -1.22,1.65 -0.26,0.3 -0.55,0.63 -0.88,0.61 -0.21,-0.01 -0.45,-0.17 -0.61,-0.35 -0.75,-0.85 0.04,-2.1 0.65,-3.23 0.69,-1.29 1.15,-2.43 1.53,-3.55 l -1.45,-0.61 c 0.8,-0.84 1.58,-1.67 2.36,-2.49 0.19,-0.73 0.38,-1.49 0.53,-2.26 0.16,-0.84 0.3,-1.7 0.77,-2.33 0.22,-0.29 0.51,-0.53 0.9,-0.67 0.7,-0.27 1.72,-0.23 2.04,0.18 0.28,0.36 0.02,1.02 -0.27,1.77 -0.46,1.26 -0.99,2.8 -0.83,2.85 z"
         style="fill:#005800;stroke-width:0px"
         id="path41" />
      <path
         d="m 596.21,179.24 c 0.62,0.45 1.82,-1.11 2.77,-2.33 1.1,-1.41 1.87,-2.35 2.64,-3.3 0.78,-1.01 1.56,-2.02 1.7,-3.4 0.05,-0.42 0.03,-0.87 -0.11,-1.15 -0.47,-0.89 -2.33,0.04 -3.71,1.15 -2.12,1.71 -3.09,3.83 -3.57,5.26 -0.22,0.66 -0.35,1.18 -0.27,2.03 0.05,0.65 0.22,1.5 0.55,1.74 z m -15.77,-4.65 c 0.21,0 1.03,-1.41 1.67,-2.43 0.7,-1.13 1.16,-1.81 1.86,-2.5 0.55,-0.53 1.23,-1.07 2.05,-1.27 0.84,-0.2 1.81,-0.05 2.4,0.43 1.12,0.89 0.89,2.92 0.43,4.57 -0.46,1.6 -1.13,2.85 -1.66,4.07 -0.37,0.87 -0.67,1.72 -1.13,2.93 -0.2,0.5 -0.42,1.06 -0.33,1.24 0.15,0.3 1.13,-0.4 1.85,-0.99 1.01,-0.83 1.52,-1.42 2.21,-1.95 0.58,-0.45 1.28,-0.86 2.06,-1.21 0.1,-1.19 0.48,-2.24 0.98,-3.23 0.77,-1.49 1.83,-2.86 2.95,-4.01 0.96,-0.99 1.96,-1.83 3.17,-2.57 1.66,-1.02 3.7,-1.85 5.48,-1.24 0.85,0.3 1.64,0.92 2.13,1.71 0.75,1.22 0.81,2.83 0.4,4.14 -0.4,1.31 -1.27,2.31 -2.19,3.54 -0.56,0.74 -1.14,1.56 -1.05,2.37 0.03,0.25 0.12,0.5 0.28,0.59 0.38,0.2 1.14,-0.5 1.75,-1.1 1.17,-1.16 1.77,-1.92 2.47,-2.76 0.56,-0.66 1.19,-1.37 1.8,-2.1 l 0.77,0.65 c -0.83,1.03 -1.64,2.12 -2.39,3.24 -0.76,1.13 -1.45,2.28 -2.46,3.21 -1,0.94 -2.32,1.65 -3.76,1.48 -0.58,-0.07 -1.18,-0.28 -1.48,-0.67 -0.38,-0.49 -0.27,-1.28 -0.15,-2.07 -0.39,0.49 -0.77,0.98 -1.23,1.38 -0.47,0.4 -1.02,0.7 -1.63,1.03 -1.07,0.57 -2.31,1.22 -3.39,1.08 -0.66,-0.09 -1.25,-0.48 -1.67,-1.06 -0.35,-0.48 -0.57,-1.11 -0.69,-1.78 -0.66,0.44 -1.29,0.92 -1.85,1.49 -0.61,0.63 -1.14,1.38 -1.78,1.97 -0.69,0.64 -1.51,1.1 -2.52,1.32 -0.89,0.19 -1.91,0.19 -2.62,-0.23 -0.43,-0.26 -0.74,-0.68 -0.87,-1.16 -0.25,-0.9 0.17,-2 0.52,-2.95 0.51,-1.35 0.89,-2.4 1.57,-3.78 0.31,-0.61 0.68,-1.29 0.94,-2.06 0.24,-0.74 0.38,-1.56 0.27,-1.88 -0.27,-0.78 -2.04,1.39 -3.23,2.96 -0.15,0.2 -0.3,0.4 -0.44,0.58 z"
         style="fill:#005800;stroke-width:0px"
         id="path43" />
      <path
         d="m 615.29,174.11 c -0.62,0.15 -1.3,0.35 -1.95,0.69 -0.79,0.42 -1.55,1.03 -1.77,1.9 -0.16,0.63 -0.04,1.4 0.36,1.84 0.61,0.68 1.87,0.57 2.88,0.11 0.82,-0.37 1.47,-0.98 1.61,-1.7 0.15,-0.76 -0.27,-1.64 -0.77,-2.36 -0.13,-0.19 -0.27,-0.36 -0.36,-0.48 z m -88.45,53.09 c -8.75,3.3 -17.75,5.86 -27.05,7.42 -5.49,0.92 -11.08,1.48 -16.52,1.03 -3.97,-0.34 -7.86,-1.22 -11.52,-2.67 -2.59,-1.03 -5.06,-2.35 -6.71,-4.59 -1.43,-1.92 -2.24,-4.53 -2.46,-6.94 -0.27,-2.87 0.28,-5.48 1.68,-7.84 2.64,-4.45 8.32,-8.04 13.91,-10.26 7.08,-2.82 14.02,-3.44 20.99,-3.71 9.43,-0.37 18.92,-0.08 28.33,1.04 7.03,0.83 14.01,2.12 20.8,4.03 2.74,-1.21 5.51,-2.34 8.34,-3.31 5.11,-1.75 10.43,-2.98 15.78,-3.56 3.64,-0.39 7.3,-0.49 11.02,-0.03 3.95,0.48 7.96,1.59 11.01,4 1.9,1.5 3.42,3.51 4.54,5.68 0.85,1.65 1.48,3.4 1.85,5.2 0.18,0.86 0.3,1.73 0.42,2.6 0.08,0.53 -0.21,0.97 -0.72,1.1 -0.51,0.13 -0.98,-0.12 -1.16,-0.62 -0.07,-0.24 -0.14,-0.48 -0.22,-0.72 -0.32,-1.11 -0.68,-2.2 -1.17,-3.24 -0.77,-1.61 -1.87,-3.08 -3.16,-4.36 -2.15,-2.13 -4.8,-3.77 -7.64,-4.73 -3.65,-1.24 -7.61,-1.38 -11.51,-1.13 -5.27,0.33 -10.41,1.37 -15.34,3.02 -1.89,0.63 -3.74,1.34 -5.58,2.12 1.27,0.43 2.54,0.87 3.8,1.32 0.68,-0.3 1.35,-0.59 2.04,-0.86 4.14,-1.62 8.57,-2.58 13.05,-2.88 5.25,-0.36 10.57,0.19 15.41,2.64 3.71,1.88 7.14,4.89 8.34,8.62 0.29,0.93 0.45,1.9 0.51,2.91 4.15,0.32 8.34,0.35 12.54,0.06 4.63,-0.32 9.28,-1.01 13.49,-2.82 3.61,-1.55 6.9,-3.93 9.71,-6.76 1.94,-1.94 3.66,-4.11 4.88,-6.52 1.34,-2.65 2.1,-5.61 2.28,-8.63 0.26,-4.32 -0.64,-8.79 -2.94,-12.42 -1.52,-2.41 -3.65,-4.45 -6,-5.91 -1.9,-1.19 -3.94,-1.99 -6.34,-2.33 -1.38,-0.2 -2.87,-0.24 -4.23,-0.14 -0.78,0.06 -1.52,0.16 -2.23,0.28 0.34,0.76 0.62,1.54 0.67,2.36 0.11,1.55 -0.55,3.27 -1.72,4.4 -1.35,1.31 -3.39,1.82 -5.3,1.52 -1.52,-0.24 -2.96,-1 -3.51,-2.27 -0.5,-1.14 -0.27,-2.7 0.43,-3.78 0.75,-1.16 2.05,-1.76 3.33,-2.29 0.4,-0.17 0.8,-0.33 1.2,-0.48 -0.09,-0.13 -0.18,-0.26 -0.26,-0.4 -0.33,-0.53 -0.59,-1.14 -0.71,-1.77 -0.49,0.67 -1.02,1.26 -1.55,1.88 -0.28,0.33 -0.57,0.67 -0.85,1.01 l -0.77,-0.65 c 0.2,-0.24 0.4,-0.48 0.6,-0.73 0.95,-1.16 1.81,-2.33 2.67,-3.5 0.28,-0.84 0.85,-1.61 1.53,-2.2 0.94,-0.81 2.09,-1.27 3.39,-1.44 1.28,-0.18 2.71,-0.08 3.54,0.77 0.53,0.54 0.82,1.39 0.75,2.2 -0.07,0.77 -0.47,1.49 -1.1,1.92 -0.65,0.45 -1.55,0.56 -2.3,0.33 -0.32,-0.1 -0.61,-0.27 -0.87,-0.45 -0.15,-0.11 -0.2,-0.28 -0.15,-0.45 0.06,-0.18 0.21,-0.28 0.4,-0.28 0.45,0.02 0.9,0.03 1.13,-0.2 0.26,-0.27 0.25,-0.83 0.04,-1.27 -0.22,-0.45 -0.67,-0.76 -1.08,-0.73 -0.39,0.04 -0.74,0.37 -0.96,0.74 -0.37,0.64 -0.34,1.39 -0.18,2.08 0.15,0.68 0.43,1.31 0.72,1.89 0.44,-0.1 0.9,-0.2 1.38,-0.28 2.4,-0.39 4.9,-0.37 7.36,-0.02 2.43,0.35 4.83,1.03 6.94,2.21 2.71,1.52 4.95,3.87 6.73,6.51 2.24,3.33 3.76,7.12 4.19,11.01 0.42,3.93 -0.26,7.95 -1.54,11.8 -1.65,4.99 -4.3,9.69 -8.07,13.18 -3.87,3.59 -8.92,5.9 -14.12,7.26 -5.01,1.31 -10.14,1.73 -15.24,1.56 -2.8,-0.1 -5.58,-0.37 -8.25,-0.74 -0.49,3.13 -1.45,6.39 -2.7,9.24 -1.09,2.48 -2.39,4.64 -3.99,6.67 -2.63,3.31 -6.07,6.23 -9.9,8.44 -4.59,2.65 -9.75,4.28 -15.21,4.97 -4.5,0.57 -9.21,0.5 -13.39,-0.75 -3.5,-1.05 -6.63,-2.91 -9.17,-5.52 -2.23,-2.28 -4,-5.14 -4.71,-8.28 -0.74,-3.27 -0.34,-6.86 0.99,-9.97 1.36,-3.18 3.68,-5.87 6.52,-7.89 0.92,-0.65 1.89,-1.23 2.91,-1.72 2.32,-1.13 4.85,-1.79 7.4,-1.73 3.47,0.09 7,1.49 9.46,4.01 2.23,2.27 3.58,5.45 3.53,8.59 -0.04,2.47 -0.95,4.92 -2.47,6.89 -1.61,2.09 -3.91,3.65 -6.38,4.44 -0.49,0.16 -0.99,0.29 -1.49,0.42 1.01,-1.58 2.02,-3.17 2.71,-4.92 1.02,-2.61 1.33,-5.6 0.37,-8.35 -0.78,-2.2 -2.37,-4.24 -4.38,-5.07 -2.58,-1.06 -5.86,-0.12 -8.44,1.51 -2.52,1.6 -4.39,3.86 -5.28,6.51 -1.06,3.12 -0.78,6.78 0.65,9.82 1.44,3.05 4.05,5.48 7.05,6.92 3.03,1.45 6.46,1.88 9.83,1.71 4.07,-0.21 8.06,-1.31 11.65,-3.19 3.55,-1.85 6.71,-4.47 9.38,-7.49 2.45,-2.75 4.48,-5.84 6.09,-9.11 1.08,-2.2 1.97,-4.48 2.46,-6.95 0.01,-0.09 0.03,-0.18 0.05,-0.27 -1.71,-0.32 -3.42,-0.67 -5.12,-1.02 -6.14,-1.27 -12.24,-2.63 -18.17,-4.56 -4.05,-1.32 -8.02,-2.9 -12.01,-4.42 -2.7,1.37 -5.33,2.88 -7.96,4.37 -1.65,0.95 -3.3,1.88 -4.97,2.77 -5.17,2.74 -10.54,5.08 -16,7.14 z m -27.14,4.41 c 7.3,-1.16 14.46,-3.14 21.46,-5.56 8.47,-2.92 16.7,-6.48 24.51,-10.89 2.14,-1.21 4.24,-2.48 6.27,-3.65 -1.19,-0.42 -2.54,-0.89 -3.91,-1.32 -0.18,-0.05 -0.35,-0.11 -0.53,-0.16 -1.18,0.57 -2.37,1.14 -3.56,1.71 -5.61,2.7 -11.23,5.3 -16.92,7.79 -6.9,3.02 -13.91,5.87 -21.06,8.07 -5.69,1.74 -11.47,3.07 -17.62,3.33 -2.85,0.13 -5.79,0.02 -8.49,-0.63 -1.61,-0.39 -3.14,-0.98 -4.53,-1.83 -1.19,-0.73 -2.27,-1.64 -3.35,-2.56 -0.41,-0.3 -0.6,-0.77 -0.52,-1.28 0.07,-0.5 0.39,-0.89 0.86,-1.07 0.48,-0.17 0.98,-0.08 1.36,0.25 0.97,0.71 1.93,1.42 2.96,1.99 3.51,1.91 7.83,2.08 11.98,1.82 6.03,-0.37 11.72,-1.64 17.27,-3.45 6.6,-2.16 13.01,-5.07 19.3,-8.12 4.54,-2.21 9.02,-4.49 13.53,-6.74 0.72,-0.36 1.44,-0.72 2.17,-1.08 -5.98,-1.4 -12.09,-2.31 -18.22,-2.92 -7.59,-0.76 -15.2,-1.08 -22.76,-0.75 -6.45,0.29 -12.86,1.04 -19.18,3.23 -4.44,1.54 -8.84,3.79 -11.19,7.86 -1.37,2.38 -2.04,5.38 -1.23,7.89 0.62,1.93 2.11,3.57 3.79,4.82 2.22,1.67 4.8,2.66 7.45,3.27 0.25,0.07 0.51,0.13 0.77,0.18 3.56,0.74 7.23,0.88 10.86,0.71 2.86,-0.14 5.71,-0.46 8.53,-0.91 z m 91.55,-13.88 c -0.12,-0.79 -0.33,-1.62 -0.67,-2.39 -1.35,-3.15 -4.64,-5.4 -8.06,-6.63 -4.49,-1.62 -9.21,-1.47 -13.73,-0.55 -1.94,0.4 -3.85,0.94 -5.63,1.57 3.41,1.25 6.93,2.55 10.5,3.7 5.77,1.87 11.67,3.37 17.59,4.3 z"
         style="fill:#005800;stroke-width:0px"
         id="path45" />
    </g>
  </g>
  <metadata
     id="metadata1241">
    <rdf:RDF>
      <cc:Work
         rdf:about="">
        <cc:license
           rdf:resource="http://creativecommons.org/licenses/by-nc/4.0/" />
        <dc:title>Downloadable Christmas Tree SVG Files for Cricut and Silhouette</dc:title>
        <dc:description>Downloadable SVG files featuring Christmas tree vectors in both intricate and simplistic designs, suitable for holiday-themed projects.</dc:description>
        <dc:creator>
          <cc:Agent>
            <dc:title>templatesarea.com</dc:title>
          </cc:Agent>
        </dc:creator>
        <dc:publisher>
          <cc:Agent>
            <dc:title>templatesarea.com</dc:title>
          </cc:Agent>
        </dc:publisher>
        <dc:rights>
          <cc:Agent>
            <dc:title>https://www.templatesarea.com/license-agreement/</dc:title>
          </cc:Agent>
        </dc:rights>
      </cc:Work>
      <cc:License
         rdf:about="http://creativecommons.org/licenses/by-nc/4.0/">
        <cc:permits
           rdf:resource="http://creativecommons.org/ns#Reproduction" />
        <cc:permits
           rdf:resource="http://creativecommons.org/ns#Distribution" />
        <cc:requires
           rdf:resource="http://creativecommons.org/ns#Notice" />
        <cc:requires
           rdf:resource="http://creativecommons.org/ns#Attribution" />
        <cc:prohibits
           rdf:resource="http://creativecommons.org/ns#CommercialUse" />
        <cc:permits
           rdf:resource="http://creativecommons.org/ns#DerivativeWorks" />
      </cc:License>
    </rdf:RDF>
  </metadata>
</svg>
