<?xml version="1.0" encoding="UTF-8" standalone="no"?>
<svg
   width="184.85001"
   height="231.08"
   viewBox="0 0 184.85 231.07999"
   version="1.1"
   id="svg91"
   sodipodi:docname="tree_board_cut.svg"
   inkscape:version="1.3.2 (091e20ef0f, 2023-11-25, custom)"
   xmlns:inkscape="http://www.inkscape.org/namespaces/inkscape"
   xmlns:sodipodi="http://sodipodi.sourceforge.net/DTD/sodipodi-0.dtd"
   xmlns="http://www.w3.org/2000/svg"
   xmlns:svg="http://www.w3.org/2000/svg"
   xmlns:rdf="http://www.w3.org/1999/02/22-rdf-syntax-ns#"
   xmlns:cc="http://creativecommons.org/ns#"
   xmlns:dc="http://purl.org/dc/elements/1.1/">
  <title
     id="title1243">Downloadable Christmas Tree SVG Files for Cricut and Silhouette</title>
  <defs
     id="defs95" />
  <sodipodi:namedview
     id="namedview93"
     pagecolor="#ffffff"
     bordercolor="#000000"
     borderopacity="0.25"
     inkscape:showpageshadow="2"
     inkscape:pageopacity="0.0"
     inkscape:pagecheckerboard="0"
     inkscape:deskcolor="#d1d1d1"
     showgrid="false"
     inkscape:zoom="1.5090841"
     inkscape:cx="-588.76772"
     inkscape:cy="-28.494104"
     inkscape:window-width="3840"
     inkscape:window-height="2123"
     inkscape:window-x="0"
     inkscape:window-y="0"
     inkscape:window-maximized="1"
     inkscape:current-layer="svg91" />
  <g
     id="SPLINE-3"
     data-name="SPLINE"
     transform="translate(-455.2,-275.64)">
    <path
       d="m 640.05,462.54 c -1.78,1.98 -3.56,3.95 -5.53,5.71 -4.3,3.84 -9.52,6.65 -14.93,8.84 -6.01,2.43 -12.26,4.08 -18.64,4.89 -4.33,0.55 -8.71,0.71 -13.07,0.53 -4.02,-0.17 -8.02,-0.64 -12.01,-1.18 -3.64,-0.5 -7.27,-1.06 -10.9,-1.63 v 27.02 H 530.29 V 479.7 c -3.64,0.57 -7.27,1.13 -10.91,1.63 -3.99,0.54 -7.99,1.01 -12.01,1.18 -4.36,0.18 -8.74,0.02 -13.07,-0.53 -6.37,-0.81 -12.63,-2.46 -18.64,-4.89 -5.41,-2.19 -10.63,-5 -14.93,-8.84 -1.97,-1.76 -3.75,-3.73 -5.53,-5.71 3.44,-0.57 6.89,-1.13 10.29,-1.9 5.25,-1.19 10.4,-2.86 15.36,-5.02 6.25,-2.71 12.18,-6.21 17.48,-10.46 3.29,-2.63 6.33,-5.55 9.36,-8.47 -1.91,-0.35 -3.82,-0.7 -5.72,-1.14 -2.88,-0.67 -5.73,-1.56 -8.4,-2.9 -3.25,-1.64 -6.24,-3.94 -8.69,-6.49 -2.4,-2.5 -4.29,-5.25 -5.78,-8.39 -0.98,-2.05 -1.78,-4.28 -2.33,-6.53 2.76,-0.04 5.51,-0.07 8.23,-0.42 2.89,-0.37 5.75,-1.09 8.5,-2.06 2.67,-0.93 5.24,-2.09 7.7,-3.46 3.92,-2.18 7.57,-4.89 10.66,-8.11 1.35,-1.4 2.59,-2.9 3.83,-4.41 -2.6,-0.43 -5.2,-0.87 -7.76,-1.53 -3.12,-0.79 -6.19,-1.91 -8.84,-3.76 -2.36,-1.66 -4.39,-3.9 -5.64,-6.47 -1,-2.02 -1.51,-4.24 -2.03,-6.46 2.42,0.12 4.85,0.24 7.27,-0.02 2.83,-0.3 5.66,-1.12 8.34,-2.21 3.05,-1.23 5.91,-2.81 8.52,-4.75 2.67,-1.99 5.09,-4.36 7,-6.67 0.78,-0.93 1.47,-1.86 2.21,-2.97 -1.57,-0.12 -3.14,-0.25 -4.72,-0.47 -3.07,-0.43 -6.17,-1.2 -8.72,-2.96 -1.79,-1.25 -3.32,-2.98 -4.21,-4.94 -0.74,-1.66 -1.04,-3.49 -1.33,-5.32 3.06,-0.56 6.12,-1.13 8.97,-2.27 3.24,-1.31 6.21,-3.37 8.88,-5.7 3.08,-2.68 5.77,-5.72 8.24,-8.93 2.68,-3.46 5.1,-7.11 7.21,-10.94 1.54,-2.79 2.9,-5.67 4.27,-8.56 -4.92,1.97 -9.83,3.93 -14.74,5.9 2.97,-4.73 5.94,-9.46 8.91,-14.2 -3.39,-3.63 -6.78,-7.27 -10.17,-10.91 h 13.18 c 2.37,-4.33 4.73,-8.67 7.1,-13 2.36,4.33 4.73,8.67 7.09,13 h 13.18 c -3.39,3.64 -6.78,7.28 -10.17,10.91 2.97,4.74 5.95,9.47 8.92,14.2 -4.92,-1.97 -9.83,-3.93 -14.74,-5.9 1.36,2.89 2.73,5.77 4.26,8.56 2.11,3.83 4.54,7.48 7.21,10.94 2.48,3.21 5.16,6.25 8.24,8.93 2.67,2.33 5.64,4.39 8.88,5.7 2.85,1.14 5.91,1.71 8.97,2.27 -0.29,1.83 -0.58,3.66 -1.33,5.32 -0.89,1.96 -2.41,3.69 -4.21,4.94 -2.55,1.76 -5.65,2.53 -8.71,2.96 -1.58,0.22 -3.16,0.35 -4.73,0.47 0.74,1.11 1.44,2.04 2.21,2.97 1.92,2.31 4.33,4.68 7,6.67 2.61,1.94 5.47,3.52 8.52,4.75 2.68,1.09 5.52,1.91 8.34,2.21 2.43,0.26 4.85,0.14 7.27,0.02 -0.52,2.22 -1.03,4.44 -2.02,6.46 -1.26,2.57 -3.29,4.81 -5.65,6.47 -2.65,1.85 -5.72,2.97 -8.83,3.76 -2.57,0.66 -5.17,1.1 -7.77,1.53 1.25,1.51 2.49,3.01 3.83,4.41 3.09,3.22 6.75,5.93 10.66,8.11 2.47,1.37 5.04,2.53 7.7,3.46 2.75,0.97 5.61,1.69 8.5,2.06 2.72,0.35 5.47,0.38 8.23,0.42 -0.54,2.25 -1.35,4.48 -2.33,6.53 -1.49,3.14 -3.37,5.89 -5.78,8.39 -2.45,2.55 -5.44,4.85 -8.69,6.49 -2.67,1.34 -5.51,2.23 -8.4,2.9 -1.89,0.44 -3.81,0.79 -5.72,1.14 3.04,2.92 6.07,5.84 9.36,8.47 5.3,4.25 11.24,7.75 17.49,10.46 4.95,2.16 10.1,3.83 15.35,5.02 3.41,0.77 6.85,1.33 10.29,1.9 z"
       style="fill:#005800;stroke-width:0px"
       id="path56" />
  </g>
  <metadata
     id="metadata1241">
    <rdf:RDF>
      <cc:Work
         rdf:about="">
        <cc:license
           rdf:resource="http://creativecommons.org/licenses/by-nc/4.0/" />
        <dc:title>Downloadable Christmas Tree SVG Files for Cricut and Silhouette</dc:title>
        <dc:description>Downloadable SVG files featuring Christmas tree vectors in both intricate and simplistic designs, suitable for holiday-themed projects.</dc:description>
        <dc:creator>
          <cc:Agent>
            <dc:title>templatesarea.com</dc:title>
          </cc:Agent>
        </dc:creator>
        <dc:publisher>
          <cc:Agent>
            <dc:title>templatesarea.com</dc:title>
          </cc:Agent>
        </dc:publisher>
        <dc:rights>
          <cc:Agent>
            <dc:title>https://www.templatesarea.com/license-agreement/</dc:title>
          </cc:Agent>
        </dc:rights>
      </cc:Work>
      <cc:License
         rdf:about="http://creativecommons.org/licenses/by-nc/4.0/">
        <cc:permits
           rdf:resource="http://creativecommons.org/ns#Reproduction" />
        <cc:permits
           rdf:resource="http://creativecommons.org/ns#Distribution" />
        <cc:requires
           rdf:resource="http://creativecommons.org/ns#Notice" />
        <cc:requires
           rdf:resource="http://creativecommons.org/ns#Attribution" />
        <cc:prohibits
           rdf:resource="http://creativecommons.org/ns#CommercialUse" />
        <cc:permits
           rdf:resource="http://creativecommons.org/ns#DerivativeWorks" />
      </cc:License>
    </rdf:RDF>
  </metadata>
</svg>
